<?xml version="1.0" encoding="UTF-8" standalone="no"?>
<!DOCTYPE svg PUBLIC "-//W3C//DTD SVG 1.1//EN" "http://www.w3.org/Graphics/SVG/1.1/DTD/svg11.dtd">
<svg width="100%" height="100%" viewBox="0 0 211 267" version="1.1" xmlns="http://www.w3.org/2000/svg" xmlns:xlink="http://www.w3.org/1999/xlink" xml:space="preserve" xmlns:serif="http://www.serif.com/" style="fill-rule:evenodd;clip-rule:evenodd;stroke-linejoin:round;stroke-miterlimit:2;">
    <g transform="matrix(1,0,0,1,-1081.25,-1466.67)">
        <g transform="matrix(1.33333,0,0,1.33333,0,0)">
            <g transform="matrix(158.126,0,0,-158.126,810.937,1179.06)">
                <path d="M0.005,0.5C0.002,0.5 -0,0.498 -0,0.495L-0,-0.495C-0,-0.498 0.002,-0.5 0.005,-0.5L0.995,-0.5C0.998,-0.5 1,-0.498 1,-0.495L1,0.495C1,0.498 0.998,0.5 0.995,0.5L0.005,0.5Z" style="fill:url(#_Linear1);fill-rule:nonzero;"/>
            </g>
        </g>
        <g transform="matrix(1.33333,0,0,1.33333,0,0)">
            <g transform="matrix(1,0,0,1,957.994,1192.05)">
                <path d="M0,-82.561L-135.988,-82.561C-136.861,-82.561 -137.569,-81.853 -137.569,-80.979L-137.569,-0.79C-137.569,-0.353 -137.215,0 -136.779,0L-134.122,0C-133.685,0 -133.331,-0.353 -133.331,-0.79L-133.331,-78.323L-2.656,-78.323L-2.656,-0.79C-2.656,-0.353 -2.303,0 -1.866,0L0.79,0C1.227,0 1.581,-0.353 1.581,-0.79L1.581,-80.979C1.581,-81.853 0.874,-82.561 0,-82.561" style="fill:white;fill-rule:nonzero;"/>
            </g>
        </g>
        <g transform="matrix(1.33333,0,0,1.33333,0,0)">
            <g transform="matrix(1,0,0,1,851.018,1210.94)">
                <path d="M0,28.37C2.65,24.755 3.976,20.026 3.976,14.185C3.976,10.546 3.413,7.256 2.291,4.313C1.168,1.371 -0.596,-0.987 -2.998,-2.763C-5.403,-4.537 -8.423,-5.424 -12.062,-5.424L-26.348,-5.424L-26.348,33.795L-12.062,33.795C-6.671,33.795 -2.651,31.986 0,28.37M-0.505,-6.199C2.437,-4.065 4.638,-1.213 6.099,2.359C7.558,5.93 8.288,9.872 8.288,14.185C8.288,18.632 7.558,22.631 6.099,26.18C4.638,29.729 2.437,32.547 -0.505,34.637C-3.448,36.726 -7.076,37.77 -11.388,37.77L-28.572,37.77C-29.156,37.77 -29.639,37.58 -30.02,37.198C-30.402,36.817 -30.593,36.333 -30.593,35.749L-30.593,-7.378C-30.593,-7.962 -30.402,-8.445 -30.02,-8.828C-29.639,-9.208 -29.156,-9.4 -28.572,-9.4L-11.388,-9.4C-7.076,-9.4 -3.448,-8.332 -0.505,-6.199" style="fill:white;fill-rule:nonzero;"/>
            </g>
        </g>
        <g transform="matrix(1.33333,0,0,1.33333,0,0)">
            <g transform="matrix(1,0,0,1,891.618,1248.61)">
                <path d="M0,-33.56C0.382,-33.177 0.572,-32.694 0.572,-32.111L0.572,-13.108C0.572,-8.705 -0.663,-5.325 -3.133,-2.966C-5.605,-0.608 -9.02,0.572 -13.376,0.572C-17.689,0.572 -21.07,-0.608 -23.518,-2.966C-25.967,-5.325 -27.19,-8.705 -27.19,-13.108L-27.19,-32.111C-27.19,-32.694 -27,-33.177 -26.617,-33.56C-26.237,-33.941 -25.753,-34.132 -25.169,-34.132C-24.585,-34.132 -24.102,-33.941 -23.72,-33.56C-23.339,-33.177 -23.147,-32.694 -23.147,-32.111L-23.147,-13.108C-23.147,-9.873 -22.294,-7.414 -20.586,-5.729C-18.88,-4.045 -16.476,-3.202 -13.376,-3.202C-10.232,-3.202 -7.795,-4.045 -6.065,-5.729C-4.335,-7.414 -3.471,-9.873 -3.471,-13.108L-3.471,-32.111C-3.471,-32.694 -3.28,-33.177 -2.897,-33.56C-2.517,-33.941 -2.033,-34.132 -1.449,-34.132C-0.866,-34.132 -0.383,-33.941 0,-33.56" style="fill:white;fill-rule:nonzero;"/>
            </g>
        </g>
        <g transform="matrix(1.33333,0,0,1.33333,0,0)">
            <g transform="matrix(1,0,0,1,927.231,1200.87)">
                <path d="M0,45.823C0,46.407 -0.236,46.891 -0.708,47.272C-1.179,47.654 -1.617,47.844 -2.022,47.844C-2.606,47.844 -3.1,47.599 -3.504,47.103L-18.397,31.335L-23.451,35.647L-23.451,45.823C-23.451,46.407 -23.642,46.891 -24.023,47.272C-24.406,47.654 -24.889,47.844 -25.472,47.844C-26.056,47.844 -26.539,47.654 -26.921,47.272C-27.303,46.891 -27.494,46.407 -27.494,45.823L-27.494,-0C-27.494,-0.583 -27.303,-1.066 -26.921,-1.448C-26.539,-1.829 -26.056,-2.021 -25.472,-2.021C-24.889,-2.021 -24.406,-1.829 -24.023,-1.448C-23.642,-1.066 -23.451,-0.583 -23.451,-0L-23.451,30.728L-3.976,13.949C-3.571,13.501 -3.1,13.276 -2.561,13.276C-2.067,13.276 -1.617,13.489 -1.213,13.916C-0.809,14.343 -0.607,14.803 -0.607,15.297C-0.607,15.836 -0.854,16.353 -1.348,16.847L-15.229,28.639L-0.607,44.273C-0.202,44.722 0,45.24 0,45.823" style="fill:white;fill-rule:nonzero;"/>
            </g>
        </g>
        <g transform="matrix(1.33333,0,0,1.33333,0,0)">
            <g transform="matrix(1,0,0,1,936.698,1242.78)">
                <path d="M0,-22.709C-2.224,-20.912 -3.651,-18.329 -4.279,-14.96L18.7,-14.96L18.7,-15.499C18.474,-17.521 17.8,-19.283 16.678,-20.788C15.555,-22.293 14.151,-23.439 12.467,-24.225C10.782,-25.011 9.04,-25.405 7.244,-25.405C4.638,-25.405 2.224,-24.505 0,-22.709M22.271,-11.894C21.867,-11.512 21.395,-11.321 20.856,-11.321L-4.616,-11.321C-4.616,-8.626 -4.066,-6.21 -2.964,-4.077C-1.865,-1.943 -0.292,-0.258 1.753,0.977C3.796,2.213 6.21,2.83 8.996,2.83C11.153,2.83 13.083,2.382 14.791,1.482C16.498,0.584 17.868,-0.562 18.902,-1.954C19.396,-2.359 19.867,-2.561 20.317,-2.561C20.766,-2.561 21.17,-2.381 21.53,-2.022C21.889,-1.661 22.069,-1.257 22.069,-0.809C22.069,-0.314 21.844,0.158 21.395,0.607C19.957,2.359 18.149,3.797 15.971,4.919C13.791,6.042 11.49,6.604 9.064,6.604C5.604,6.604 2.549,5.863 -0.101,4.38C-2.752,2.898 -4.818,0.82 -6.3,-1.853C-7.783,-4.525 -8.524,-7.615 -8.524,-11.119C-8.524,-14.802 -7.795,-18.025 -6.334,-20.788C-4.874,-23.551 -2.931,-25.662 -0.505,-27.123C1.921,-28.583 4.503,-29.313 7.244,-29.313C9.939,-29.313 12.467,-28.683 14.825,-27.426C17.184,-26.168 19.104,-24.326 20.587,-21.901C22.069,-19.475 22.833,-16.599 22.878,-13.275C22.878,-12.736 22.675,-12.275 22.271,-11.894" style="fill:white;fill-rule:nonzero;"/>
            </g>
        </g>
        <g transform="matrix(1.33333,0,0,1.33333,0,0)">
            <g transform="matrix(155.092,0,0,-155.092,811.877,1281.6)">
                <path d="M0.022,0.064C0.015,0.061 0.01,0.057 0.006,0.052C0.002,0.046 0.001,0.04 0.001,0.033C0.001,0.027 0.002,0.022 0.004,0.018C0.007,0.014 0.01,0.01 0.014,0.007C0.018,0.004 0.023,0.002 0.029,-0C0.034,-0.002 0.04,-0.004 0.046,-0.006C0.052,-0.007 0.058,-0.009 0.063,-0.011C0.068,-0.013 0.072,-0.016 0.076,-0.019C0.079,-0.023 0.081,-0.028 0.081,-0.034C0.081,-0.039 0.079,-0.044 0.075,-0.048C0.072,-0.052 0.068,-0.055 0.062,-0.056C0.057,-0.058 0.052,-0.059 0.046,-0.059C0.036,-0.059 0.028,-0.057 0.021,-0.053C0.014,-0.049 0.008,-0.044 0.003,-0.038C0.002,-0.036 0.001,-0.036 -0.001,-0.036C-0.002,-0.036 -0.003,-0.036 -0.004,-0.037C-0.005,-0.038 -0.006,-0.039 -0.006,-0.04C-0.006,-0.041 -0.006,-0.043 -0.004,-0.045C0.002,-0.054 0.01,-0.06 0.018,-0.063C0.027,-0.067 0.036,-0.069 0.045,-0.069C0.054,-0.069 0.062,-0.067 0.068,-0.065C0.075,-0.062 0.081,-0.058 0.085,-0.052C0.089,-0.047 0.091,-0.041 0.091,-0.033C0.091,-0.027 0.089,-0.022 0.087,-0.017C0.085,-0.013 0.082,-0.01 0.078,-0.007C0.075,-0.004 0.07,-0.002 0.065,-0C0.06,0.002 0.055,0.003 0.049,0.005C0.042,0.007 0.036,0.009 0.03,0.011C0.024,0.013 0.02,0.016 0.016,0.02C0.013,0.023 0.011,0.028 0.011,0.033C0.011,0.039 0.012,0.044 0.015,0.047C0.018,0.051 0.023,0.054 0.028,0.056C0.032,0.058 0.038,0.059 0.044,0.059C0.05,0.059 0.057,0.058 0.063,0.055C0.069,0.053 0.074,0.049 0.079,0.044C0.08,0.043 0.081,0.042 0.082,0.042C0.083,0.042 0.084,0.043 0.085,0.043C0.087,0.045 0.087,0.046 0.087,0.047C0.087,0.049 0.087,0.05 0.085,0.051C0.081,0.056 0.077,0.059 0.072,0.062C0.068,0.064 0.063,0.066 0.058,0.067C0.053,0.068 0.049,0.069 0.045,0.069C0.036,0.069 0.028,0.067 0.022,0.064Z" style="fill:url(#_Linear2);fill-rule:nonzero;"/>
            </g>
        </g>
        <g transform="matrix(1.33333,0,0,1.33333,0,0)">
            <g transform="matrix(155.092,0,0,-155.092,811.877,1278.65)">
                <path d="M0.123,0.084C0.122,0.083 0.121,0.081 0.121,0.08L0.121,0.047L0.099,0.047C0.098,0.047 0.097,0.046 0.096,0.045C0.095,0.044 0.095,0.043 0.095,0.042C0.095,0.04 0.095,0.039 0.096,0.038C0.097,0.037 0.098,0.037 0.099,0.037L0.121,0.037L0.121,-0.057C0.121,-0.065 0.122,-0.071 0.124,-0.075C0.126,-0.079 0.129,-0.081 0.132,-0.083C0.135,-0.084 0.138,-0.085 0.141,-0.085C0.143,-0.085 0.145,-0.085 0.146,-0.085C0.149,-0.085 0.152,-0.085 0.154,-0.084C0.156,-0.082 0.157,-0.081 0.157,-0.079C0.157,-0.078 0.156,-0.077 0.155,-0.076C0.154,-0.075 0.153,-0.075 0.152,-0.075C0.151,-0.075 0.15,-0.075 0.149,-0.075C0.148,-0.076 0.147,-0.076 0.146,-0.076C0.144,-0.076 0.142,-0.075 0.139,-0.075C0.137,-0.074 0.135,-0.072 0.134,-0.069C0.132,-0.067 0.131,-0.062 0.131,-0.057L0.131,0.037L0.16,0.037C0.162,0.037 0.163,0.037 0.164,0.038C0.165,0.039 0.165,0.04 0.165,0.042C0.165,0.043 0.165,0.044 0.164,0.045C0.163,0.046 0.162,0.047 0.16,0.047L0.131,0.047L0.131,0.08C0.131,0.081 0.131,0.083 0.13,0.084C0.129,0.085 0.128,0.085 0.126,0.085C0.125,0.085 0.124,0.085 0.123,0.084Z" style="fill:url(#_Linear3);fill-rule:nonzero;"/>
            </g>
        </g>
        <g transform="matrix(1.33333,0,0,1.33333,0,0)">
            <g transform="matrix(155.092,0,0,-155.092,811.877,1281.4)">
                <path d="M0.218,0.062C0.211,0.058 0.205,0.053 0.201,0.047C0.197,0.042 0.194,0.036 0.192,0.03L0.192,0.058C0.192,0.059 0.191,0.061 0.19,0.062C0.189,0.063 0.188,0.063 0.186,0.063C0.185,0.063 0.184,0.063 0.183,0.062C0.182,0.061 0.181,0.059 0.181,0.058L0.181,-0.062C0.181,-0.064 0.182,-0.065 0.182,-0.066C0.183,-0.067 0.185,-0.068 0.186,-0.068C0.188,-0.068 0.189,-0.067 0.19,-0.066C0.191,-0.065 0.192,-0.064 0.192,-0.062L0.192,0.003C0.192,0.009 0.193,0.016 0.195,0.022C0.198,0.029 0.202,0.035 0.206,0.04C0.211,0.046 0.215,0.05 0.221,0.053C0.226,0.057 0.232,0.058 0.237,0.058C0.24,0.058 0.242,0.058 0.244,0.057C0.245,0.056 0.247,0.056 0.248,0.056C0.249,0.056 0.25,0.057 0.251,0.058C0.252,0.059 0.252,0.06 0.252,0.061C0.252,0.064 0.251,0.066 0.248,0.066C0.245,0.067 0.243,0.068 0.24,0.068C0.232,0.068 0.224,0.066 0.218,0.062Z" style="fill:url(#_Linear4);fill-rule:nonzero;"/>
            </g>
        </g>
        <g transform="matrix(1.33333,0,0,1.33333,0,0)">
            <g transform="matrix(155.092,0,0,-155.092,811.877,1281.6)">
                <path d="M0.283,0.06C0.273,0.054 0.266,0.046 0.261,0.036C0.256,0.026 0.253,0.014 0.253,0.001C0.253,-0.012 0.255,-0.024 0.261,-0.035C0.266,-0.045 0.273,-0.054 0.282,-0.06C0.292,-0.066 0.302,-0.069 0.314,-0.069C0.321,-0.069 0.329,-0.067 0.335,-0.065C0.342,-0.062 0.348,-0.058 0.353,-0.053C0.357,-0.048 0.361,-0.043 0.364,-0.037L0.364,-0.061C0.364,-0.062 0.365,-0.064 0.365,-0.065C0.366,-0.066 0.368,-0.066 0.369,-0.066C0.371,-0.066 0.372,-0.066 0.373,-0.065C0.374,-0.064 0.375,-0.062 0.375,-0.061L0.375,0.059C0.375,0.061 0.374,0.062 0.373,0.063C0.372,0.064 0.371,0.065 0.369,0.065C0.368,0.065 0.366,0.064 0.365,0.063C0.365,0.062 0.364,0.061 0.364,0.059L0.364,0.036C0.361,0.043 0.357,0.048 0.352,0.053C0.347,0.058 0.342,0.062 0.335,0.065C0.328,0.067 0.321,0.069 0.314,0.069C0.302,0.069 0.292,0.066 0.283,0.06ZM0.288,-0.051C0.28,-0.046 0.274,-0.039 0.27,-0.03C0.266,-0.021 0.263,-0.011 0.263,0.001C0.263,0.012 0.266,0.022 0.27,0.031C0.275,0.04 0.281,0.046 0.288,0.051C0.296,0.056 0.305,0.059 0.314,0.059C0.324,0.059 0.333,0.056 0.34,0.051C0.348,0.046 0.354,0.039 0.359,0.03C0.363,0.021 0.365,0.011 0.365,0.001C0.365,-0.011 0.363,-0.021 0.359,-0.03C0.354,-0.039 0.348,-0.046 0.34,-0.051C0.333,-0.056 0.324,-0.059 0.314,-0.059C0.304,-0.059 0.296,-0.056 0.288,-0.051Z" style="fill:url(#_Linear5);fill-rule:nonzero;"/>
            </g>
        </g>
        <g transform="matrix(1.33333,0,0,1.33333,0,0)">
            <g transform="matrix(155.092,0,0,-155.092,811.877,1278.65)">
                <path d="M0.416,0.084C0.415,0.083 0.414,0.081 0.414,0.08L0.414,0.047L0.393,0.047C0.391,0.047 0.39,0.046 0.389,0.045C0.388,0.044 0.388,0.043 0.388,0.042C0.388,0.04 0.388,0.039 0.389,0.038C0.39,0.037 0.391,0.037 0.393,0.037L0.414,0.037L0.414,-0.057C0.414,-0.065 0.415,-0.071 0.417,-0.075C0.419,-0.079 0.422,-0.081 0.425,-0.083C0.428,-0.084 0.431,-0.085 0.434,-0.085C0.436,-0.085 0.438,-0.085 0.439,-0.085C0.442,-0.085 0.445,-0.085 0.447,-0.084C0.449,-0.082 0.45,-0.081 0.45,-0.079C0.45,-0.078 0.449,-0.077 0.448,-0.076C0.448,-0.075 0.447,-0.075 0.445,-0.075C0.444,-0.075 0.443,-0.075 0.442,-0.075C0.441,-0.076 0.44,-0.076 0.439,-0.076C0.437,-0.076 0.435,-0.075 0.432,-0.075C0.43,-0.074 0.428,-0.072 0.427,-0.069C0.425,-0.067 0.425,-0.062 0.425,-0.057L0.425,0.037L0.453,0.037C0.455,0.037 0.456,0.037 0.457,0.038C0.458,0.039 0.458,0.04 0.458,0.042C0.458,0.043 0.458,0.044 0.457,0.045C0.456,0.046 0.455,0.047 0.453,0.047L0.425,0.047L0.425,0.08C0.425,0.081 0.424,0.083 0.423,0.084C0.422,0.085 0.421,0.085 0.419,0.085C0.418,0.085 0.417,0.085 0.416,0.084Z" style="fill:url(#_Linear6);fill-rule:nonzero;"/>
            </g>
        </g>
        <g transform="matrix(1.33333,0,0,1.33333,0,0)">
            <g transform="matrix(155.092,0,0,-155.092,811.877,1281.6)">
                <path d="M0.495,0.061C0.486,0.055 0.479,0.047 0.473,0.037C0.468,0.027 0.465,0.014 0.465,-0.001C0.465,-0.014 0.468,-0.026 0.473,-0.037C0.479,-0.047 0.487,-0.055 0.497,-0.06C0.507,-0.066 0.519,-0.069 0.532,-0.069C0.542,-0.069 0.552,-0.066 0.56,-0.061C0.569,-0.056 0.575,-0.05 0.581,-0.043C0.582,-0.042 0.582,-0.041 0.582,-0.039C0.582,-0.038 0.581,-0.037 0.581,-0.036C0.58,-0.035 0.579,-0.035 0.577,-0.035C0.576,-0.035 0.574,-0.036 0.573,-0.037C0.57,-0.041 0.567,-0.045 0.563,-0.048C0.559,-0.051 0.554,-0.054 0.549,-0.056C0.543,-0.058 0.538,-0.059 0.532,-0.059C0.519,-0.059 0.509,-0.056 0.501,-0.051C0.492,-0.045 0.486,-0.038 0.481,-0.029C0.477,-0.02 0.475,-0.011 0.475,0C0.475,0.001 0.475,0.002 0.475,0.004L0.578,0.004C0.579,0.004 0.581,0.004 0.582,0.005C0.583,0.006 0.583,0.008 0.583,0.009C0.583,0.019 0.581,0.028 0.578,0.036C0.574,0.043 0.57,0.049 0.564,0.054C0.559,0.059 0.552,0.063 0.545,0.065C0.538,0.068 0.531,0.069 0.524,0.069C0.514,0.069 0.504,0.066 0.495,0.061ZM0.48,0.026C0.483,0.033 0.487,0.039 0.491,0.044C0.496,0.049 0.502,0.052 0.507,0.055C0.513,0.057 0.519,0.058 0.524,0.058C0.531,0.058 0.539,0.057 0.546,0.053C0.553,0.05 0.559,0.045 0.564,0.039C0.569,0.033 0.572,0.025 0.572,0.016L0.572,0.014L0.476,0.014C0.477,0.018 0.478,0.022 0.48,0.026Z" style="fill:url(#_Linear7);fill-rule:nonzero;"/>
            </g>
        </g>
        <g transform="matrix(1.33333,0,0,1.33333,0,0)">
            <g transform="matrix(155.092,0,0,-155.092,811.877,1285.46)">
                <path d="M0.627,0.085C0.617,0.079 0.61,0.071 0.604,0.06C0.599,0.05 0.596,0.038 0.596,0.025C0.596,0.012 0.599,0 0.604,-0.01C0.61,-0.021 0.617,-0.029 0.627,-0.035C0.636,-0.041 0.647,-0.044 0.659,-0.044C0.665,-0.044 0.67,-0.043 0.676,-0.042C0.681,-0.04 0.687,-0.038 0.692,-0.035C0.697,-0.031 0.702,-0.027 0.706,-0.022C0.708,-0.019 0.71,-0.015 0.712,-0.01L0.712,-0.028C0.712,-0.045 0.707,-0.058 0.698,-0.068C0.688,-0.079 0.675,-0.084 0.659,-0.084C0.654,-0.084 0.65,-0.083 0.646,-0.083C0.642,-0.082 0.639,-0.081 0.636,-0.081C0.633,-0.08 0.631,-0.079 0.63,-0.079C0.626,-0.077 0.623,-0.075 0.622,-0.073C0.62,-0.071 0.619,-0.07 0.617,-0.07C0.615,-0.07 0.614,-0.071 0.614,-0.072C0.613,-0.073 0.612,-0.074 0.612,-0.075C0.612,-0.078 0.615,-0.081 0.619,-0.084C0.624,-0.087 0.63,-0.089 0.637,-0.091C0.644,-0.093 0.651,-0.094 0.657,-0.094L0.659,-0.094C0.672,-0.094 0.682,-0.091 0.692,-0.086C0.701,-0.081 0.709,-0.073 0.714,-0.063C0.72,-0.054 0.723,-0.042 0.723,-0.028L0.723,0.084C0.723,0.086 0.722,0.087 0.721,0.088C0.72,0.089 0.719,0.09 0.717,0.09C0.716,0.09 0.715,0.089 0.714,0.088C0.713,0.087 0.712,0.086 0.712,0.084L0.712,0.062C0.712,0.063 0.712,0.063 0.711,0.064C0.708,0.069 0.704,0.074 0.699,0.079C0.694,0.083 0.688,0.087 0.681,0.09C0.674,0.092 0.667,0.094 0.659,0.094C0.647,0.094 0.636,0.091 0.627,0.085ZM0.632,-0.026C0.624,-0.021 0.618,-0.014 0.613,-0.005C0.609,0.004 0.606,0.014 0.606,0.025C0.606,0.036 0.609,0.046 0.613,0.055C0.618,0.064 0.624,0.071 0.632,0.076C0.641,0.081 0.65,0.084 0.66,0.084C0.67,0.084 0.679,0.081 0.687,0.076C0.695,0.072 0.701,0.065 0.706,0.056C0.711,0.047 0.713,0.037 0.713,0.025C0.713,0.013 0.711,0.003 0.706,-0.006C0.701,-0.015 0.695,-0.022 0.687,-0.026C0.679,-0.031 0.67,-0.034 0.66,-0.034C0.65,-0.034 0.641,-0.031 0.632,-0.026Z" style="fill:url(#_Linear8);fill-rule:nonzero;"/>
            </g>
        </g>
        <g transform="matrix(1.33333,0,0,1.33333,0,0)">
            <g transform="matrix(155.092,0,0,-155.092,811.877,1266.7)">
                <path d="M0.752,0.007C0.75,0.005 0.749,0.003 0.749,0.001L0.749,-0.001C0.749,-0.004 0.75,-0.006 0.751,-0.007C0.753,-0.009 0.755,-0.009 0.758,-0.009C0.761,-0.009 0.763,-0.009 0.765,-0.007C0.766,-0.006 0.767,-0.004 0.767,-0.001L0.767,0.001C0.767,0.003 0.766,0.005 0.765,0.007C0.763,0.009 0.761,0.009 0.758,0.009C0.756,0.009 0.753,0.009 0.752,0.007Z" style="fill:url(#_Linear9);fill-rule:nonzero;"/>
            </g>
        </g>
        <g transform="matrix(1.33333,0,0,1.33333,0,0)">
            <g transform="matrix(155.092,0,0,-155.092,811.877,1281.4)">
                <path d="M0.754,0.066C0.753,0.065 0.753,0.064 0.753,0.062L0.753,-0.062C0.753,-0.064 0.753,-0.065 0.754,-0.066C0.755,-0.067 0.757,-0.068 0.758,-0.068C0.76,-0.068 0.761,-0.067 0.762,-0.066C0.763,-0.065 0.763,-0.064 0.763,-0.062L0.763,0.062C0.763,0.064 0.763,0.065 0.762,0.066C0.761,0.067 0.76,0.068 0.758,0.068C0.757,0.068 0.755,0.067 0.754,0.066Z" style="fill:url(#_Linear10);fill-rule:nonzero;"/>
            </g>
        </g>
        <g transform="matrix(1.33333,0,0,1.33333,0,0)">
            <g transform="matrix(155.092,0,0,-155.092,811.877,1281.6)">
                <path d="M0.945,0.064C0.938,0.061 0.933,0.057 0.929,0.052C0.925,0.046 0.924,0.04 0.924,0.033C0.924,0.027 0.925,0.022 0.927,0.018C0.93,0.014 0.933,0.01 0.937,0.007C0.941,0.004 0.946,0.002 0.952,-0C0.957,-0.002 0.963,-0.004 0.969,-0.006C0.975,-0.007 0.98,-0.009 0.986,-0.011C0.991,-0.013 0.995,-0.016 0.999,-0.019C1.002,-0.023 1.004,-0.028 1.004,-0.034C1.004,-0.039 1.002,-0.044 0.998,-0.048C0.995,-0.052 0.991,-0.055 0.985,-0.056C0.98,-0.058 0.974,-0.059 0.969,-0.059C0.959,-0.059 0.951,-0.057 0.944,-0.053C0.937,-0.049 0.931,-0.044 0.926,-0.038C0.925,-0.036 0.924,-0.036 0.922,-0.036C0.921,-0.036 0.92,-0.036 0.919,-0.037C0.918,-0.038 0.917,-0.039 0.917,-0.04C0.917,-0.041 0.917,-0.043 0.919,-0.045C0.925,-0.054 0.933,-0.06 0.941,-0.063C0.95,-0.067 0.959,-0.069 0.968,-0.069C0.977,-0.069 0.984,-0.067 0.991,-0.065C0.998,-0.062 1.004,-0.058 1.008,-0.052C1.012,-0.047 1.014,-0.041 1.014,-0.033C1.014,-0.027 1.012,-0.022 1.01,-0.017C1.008,-0.013 1.005,-0.01 1.001,-0.007C0.998,-0.004 0.993,-0.002 0.988,-0C0.983,0.002 0.978,0.003 0.972,0.005C0.965,0.007 0.958,0.009 0.953,0.011C0.947,0.013 0.943,0.016 0.939,0.02C0.936,0.023 0.934,0.028 0.934,0.033C0.934,0.039 0.935,0.044 0.938,0.047C0.941,0.051 0.945,0.054 0.95,0.056C0.955,0.058 0.961,0.059 0.967,0.059C0.973,0.059 0.98,0.058 0.986,0.055C0.992,0.053 0.997,0.049 1.002,0.044C1.003,0.043 1.004,0.042 1.005,0.042C1.006,0.042 1.007,0.043 1.008,0.043C1.009,0.045 1.01,0.046 1.01,0.047C1.01,0.049 1.01,0.05 1.008,0.051C1.004,0.056 1,0.059 0.995,0.062C0.99,0.064 0.986,0.066 0.981,0.067C0.976,0.068 0.972,0.069 0.968,0.069C0.959,0.069 0.951,0.067 0.945,0.064Z" style="fill:url(#_Linear11);fill-rule:nonzero;"/>
            </g>
        </g>
        <g transform="matrix(1.33333,0,0,1.33333,0,0)">
            <g transform="matrix(155.092,0,0,-155.092,811.877,1281.6)">
                <path d="M0.816,0.061C0.807,0.055 0.8,0.047 0.794,0.037C0.788,0.027 0.785,0.014 0.785,-0.001C0.785,-0.014 0.788,-0.026 0.794,-0.037C0.8,-0.047 0.808,-0.055 0.818,-0.06C0.828,-0.066 0.839,-0.069 0.853,-0.069C0.863,-0.069 0.872,-0.066 0.881,-0.061C0.889,-0.056 0.896,-0.05 0.902,-0.043C0.902,-0.042 0.903,-0.041 0.903,-0.039C0.903,-0.038 0.902,-0.037 0.901,-0.036C0.9,-0.035 0.899,-0.035 0.898,-0.035C0.897,-0.035 0.895,-0.036 0.894,-0.037C0.891,-0.041 0.888,-0.045 0.883,-0.048C0.879,-0.051 0.875,-0.054 0.869,-0.056C0.864,-0.058 0.858,-0.059 0.853,-0.059C0.84,-0.059 0.83,-0.056 0.821,-0.051C0.813,-0.045 0.806,-0.038 0.802,-0.029C0.798,-0.02 0.796,-0.011 0.796,0C0.796,0.001 0.796,0.002 0.796,0.004L0.899,0.004C0.9,0.004 0.901,0.004 0.902,0.005C0.903,0.006 0.904,0.008 0.904,0.009C0.904,0.019 0.902,0.028 0.898,0.036C0.895,0.043 0.89,0.049 0.885,0.054C0.879,0.059 0.873,0.063 0.866,0.065C0.859,0.068 0.852,0.069 0.845,0.069C0.835,0.069 0.825,0.066 0.816,0.061ZM0.8,0.026C0.803,0.033 0.807,0.039 0.812,0.044C0.817,0.049 0.822,0.052 0.828,0.055C0.834,0.057 0.839,0.058 0.845,0.058C0.852,0.058 0.859,0.057 0.866,0.053C0.873,0.05 0.879,0.045 0.884,0.039C0.889,0.033 0.892,0.025 0.893,0.016L0.893,0.014L0.797,0.014C0.797,0.018 0.799,0.022 0.8,0.026Z" style="fill:url(#_Linear12);fill-rule:nonzero;"/>
            </g>
        </g>
    </g>
    <defs>
        <linearGradient id="_Linear1" x1="0" y1="0" x2="1" y2="0" gradientUnits="userSpaceOnUse" gradientTransform="matrix(1,0,0,-1,0,-4.11572e-06)"><stop offset="0" style="stop-color:rgb(244,126,108);stop-opacity:1"/><stop offset="1" style="stop-color:rgb(243,117,94);stop-opacity:1"/></linearGradient>
        <linearGradient id="_Linear2" x1="0" y1="0" x2="1" y2="0" gradientUnits="userSpaceOnUse" gradientTransform="matrix(1,0,0,-1,0,-2.41921e-06)"><stop offset="0" style="stop-color:rgb(244,126,108);stop-opacity:1"/><stop offset="1" style="stop-color:rgb(243,117,94);stop-opacity:1"/></linearGradient>
        <linearGradient id="_Linear3" x1="0" y1="0" x2="1" y2="0" gradientUnits="userSpaceOnUse" gradientTransform="matrix(1,0,0,-1,0,6.97393e-06)"><stop offset="0" style="stop-color:rgb(244,126,108);stop-opacity:1"/><stop offset="1" style="stop-color:rgb(243,117,94);stop-opacity:1"/></linearGradient>
        <linearGradient id="_Linear4" x1="0" y1="0" x2="1" y2="0" gradientUnits="userSpaceOnUse" gradientTransform="matrix(1,0,0,-1,0,1.84665e-06)"><stop offset="0" style="stop-color:rgb(244,126,108);stop-opacity:1"/><stop offset="1" style="stop-color:rgb(243,117,94);stop-opacity:1"/></linearGradient>
        <linearGradient id="_Linear5" x1="0" y1="0" x2="1" y2="0" gradientUnits="userSpaceOnUse" gradientTransform="matrix(1,0,0,-1,0,-2.41921e-06)"><stop offset="0" style="stop-color:rgb(244,126,108);stop-opacity:1"/><stop offset="1" style="stop-color:rgb(243,117,94);stop-opacity:1"/></linearGradient>
        <linearGradient id="_Linear6" x1="0" y1="0" x2="1" y2="0" gradientUnits="userSpaceOnUse" gradientTransform="matrix(1,0,0,-1,0,6.97393e-06)"><stop offset="0" style="stop-color:rgb(244,126,108);stop-opacity:1"/><stop offset="1" style="stop-color:rgb(243,117,94);stop-opacity:1"/></linearGradient>
        <linearGradient id="_Linear7" x1="0" y1="0" x2="1" y2="0" gradientUnits="userSpaceOnUse" gradientTransform="matrix(1,0,0,-1,0,-2.41921e-06)"><stop offset="0" style="stop-color:rgb(244,126,108);stop-opacity:1"/><stop offset="1" style="stop-color:rgb(243,117,94);stop-opacity:1"/></linearGradient>
        <linearGradient id="_Linear8" x1="0" y1="0" x2="1" y2="0" gradientUnits="userSpaceOnUse" gradientTransform="matrix(1,0,0,-1,0,-4.33807e-06)"><stop offset="0" style="stop-color:rgb(244,126,108);stop-opacity:1"/><stop offset="1" style="stop-color:rgb(243,117,94);stop-opacity:1"/></linearGradient>
        <linearGradient id="_Linear9" x1="0" y1="0" x2="1" y2="0" gradientUnits="userSpaceOnUse" gradientTransform="matrix(1,0,0,-1,0,-2.68357e-06)"><stop offset="0" style="stop-color:rgb(244,126,108);stop-opacity:1"/><stop offset="1" style="stop-color:rgb(243,117,94);stop-opacity:1"/></linearGradient>
        <linearGradient id="_Linear10" x1="0" y1="0" x2="1" y2="0" gradientUnits="userSpaceOnUse" gradientTransform="matrix(1,0,0,-1,0,1.84665e-06)"><stop offset="0" style="stop-color:rgb(244,126,108);stop-opacity:1"/><stop offset="1" style="stop-color:rgb(243,117,94);stop-opacity:1"/></linearGradient>
        <linearGradient id="_Linear11" x1="0" y1="0" x2="1" y2="0" gradientUnits="userSpaceOnUse" gradientTransform="matrix(1,0,0,-1,0,-2.41921e-06)"><stop offset="0" style="stop-color:rgb(244,126,108);stop-opacity:1"/><stop offset="1" style="stop-color:rgb(243,117,94);stop-opacity:1"/></linearGradient>
        <linearGradient id="_Linear12" x1="0" y1="0" x2="1" y2="0" gradientUnits="userSpaceOnUse" gradientTransform="matrix(1,0,0,-1,0,-2.41921e-06)"><stop offset="0" style="stop-color:rgb(244,126,108);stop-opacity:1"/><stop offset="1" style="stop-color:rgb(243,117,94);stop-opacity:1"/></linearGradient>
    </defs>
</svg>
