<?xml version="1.0" encoding="UTF-8" standalone="no"?>
<!DOCTYPE svg PUBLIC "-//W3C//DTD SVG 1.1//EN" "http://www.w3.org/Graphics/SVG/1.1/DTD/svg11.dtd">
<svg width="100%" height="100%" viewBox="0 0 286 359" version="1.1" xmlns="http://www.w3.org/2000/svg" xmlns:xlink="http://www.w3.org/1999/xlink" xml:space="preserve" xmlns:serif="http://www.serif.com/" style="fill-rule:evenodd;clip-rule:evenodd;stroke-linejoin:round;stroke-miterlimit:2;">
    <g transform="matrix(1,0,0,1,-139.807,-102.905)">
        <g id="Square" transform="matrix(1.00005,0,0,1.00005,0,0)">
            <path d="M425.2,104.3L425.2,385C425.2,385.773 424.573,386.4 423.8,386.4L143.1,386.4C142.327,386.4 141.7,385.773 141.7,385L141.7,104.3C141.7,103.527 142.327,102.9 143.1,102.9L423.8,102.9C424.573,102.9 425.2,103.527 425.2,104.3Z" style="fill:url(#_Linear1);"/>
        </g>
        <g id="Line" transform="matrix(1.00005,0,0,1.00005,0,0)">
            <path d="M405.4,119.9L161.6,119.9C160,119.9 158.8,121.2 158.8,122.7L158.8,266.5C158.8,267.3 159.4,267.9 160.2,267.9L165,267.9C165.8,267.9 166.4,267.3 166.4,266.5L166.4,127.5L400.7,127.5L400.7,266.5C400.7,267.3 401.3,267.9 402.1,267.9L406.9,267.9C407.7,267.9 408.3,267.3 408.3,266.5L408.3,122.8C408.3,121.2 407,120 405.5,120L405.4,119.9Z" style="fill:white;fill-rule:nonzero;"/>
        </g>
        <g transform="matrix(1.00005,0,0,1.00005,0,0)">
            <path d="M172.1,410.5C172.5,410.5 172.9,410.6 173.2,410.9C173.5,411.2 173.6,411.5 173.6,411.9L173.6,445.4C173.6,445.8 173.5,446.1 173.2,446.4C172.9,446.7 172.6,446.8 172.2,446.8C171.8,446.8 171.4,446.7 171.1,446.4C170.8,446.1 170.7,445.8 170.7,445.4L170.7,435L171.9,434.1C171.9,435.7 171.5,437.2 170.7,438.8C169.9,440.4 168.9,441.9 167.5,443.2C166.1,444.5 164.5,445.6 162.7,446.4C160.9,447.2 158.9,447.6 156.7,447.6C153.4,447.6 150.5,446.8 148,445C145.4,443.3 143.4,441 142,438.1C140.5,435.2 139.8,431.9 139.8,428.3C139.8,424.7 140.5,421.3 142,418.5C143.5,415.7 145.5,413.4 148.1,411.8C150.7,410.2 153.5,409.4 156.7,409.4C159.9,409.4 160.8,409.8 162.6,410.5C164.4,411.3 166.1,412.3 167.4,413.7C168.8,415.1 169.9,416.7 170.6,418.5C171.4,420.3 171.8,422.3 171.8,424.4L170.6,422.6L170.6,412C170.6,411.6 170.7,411.3 171,411C171.3,410.7 171.6,410.6 172.1,410.6L172.1,410.5ZM156.8,444.8C159.5,444.8 162,444.1 164.1,442.6C166.2,441.2 167.9,439.2 169.1,436.7C170.3,434.2 170.9,431.4 170.9,428.2C170.9,425 170.3,422.5 169.1,420C167.9,417.5 166.2,415.6 164.1,414.2C162,412.8 159.5,412 156.8,412C154.1,412 151.7,412.7 149.6,414.1C147.5,415.5 145.8,417.4 144.5,419.8C143.3,422.2 142.6,425 142.6,428.2C142.6,431.4 143.2,434.2 144.4,436.7C145.6,439.2 147.3,441.2 149.4,442.6C151.5,444 154,444.8 156.7,444.8L156.8,444.8Z" style="fill:rgb(255,127,102);fill-rule:nonzero;"/>
            <path d="M198.2,409.3C200.4,409.3 202.4,409.5 204.4,410C206.3,410.5 207.9,411.1 209.1,411.9C210.3,412.7 210.9,413.5 210.9,414.4C210.9,415.3 210.8,415.1 210.5,415.4C210.2,415.7 209.9,415.9 209.5,415.9C209.1,415.9 208.5,415.8 208.2,415.5C207.9,415.2 207.6,414.9 207.2,414.4C206.9,414 206.3,413.6 205.6,413.3C204.9,413 204,412.7 202.7,412.4C201.5,412.2 199.9,412 198.1,412C195.3,412 192.7,412.7 190.4,414.2C188.1,415.7 186.2,417.6 184.8,420.1C183.4,422.6 182.7,425.3 182.7,428.4C182.7,431.5 183.3,434.3 184.6,436.8C185.9,439.3 187.7,441.2 190,442.7C192.3,444.1 195,444.9 198.1,444.9C201.2,444.9 202,444.7 203.1,444.3C204.2,443.9 205.2,443.4 206.1,443C207.1,442.4 207.8,441.9 208.2,441.3C208.6,440.8 209,440.5 209.6,440.5C210.2,440.5 210.3,440.6 210.5,440.9C210.7,441.1 210.8,441.5 210.8,441.8C210.8,442.4 210.3,443.1 209.2,444.1C208.1,445 206.6,445.9 204.7,446.6C202.8,447.3 200.5,447.7 197.9,447.7C195.3,447.7 191.2,446.9 188.5,445.2C185.8,443.5 183.7,441.2 182.1,438.3C180.6,435.4 179.8,432.1 179.8,428.5C179.8,424.9 180.6,422 182.1,419.1C183.6,416.2 185.8,413.9 188.5,412.1C191.2,410.3 194.5,409.4 198.2,409.4L198.2,409.3Z" style="fill:rgb(255,127,102);fill-rule:nonzero;"/>
            <path d="M246.4,410.5C246.8,410.5 247.2,410.6 247.5,410.9C247.8,411.2 247.9,411.5 247.9,411.9L247.9,445.4C247.9,445.8 247.8,446.1 247.5,446.4C247.2,446.7 246.9,446.8 246.5,446.8C246.1,446.8 245.7,446.7 245.4,446.4C245.1,446.1 245,445.8 245,445.4L245,435L246.2,434.1C246.2,435.7 245.8,437.2 245,438.8C244.2,440.4 243.2,441.9 241.8,443.2C240.4,444.5 238.8,445.6 237,446.4C235.2,447.2 233.2,447.6 231,447.6C227.7,447.6 224.8,446.8 222.3,445C219.7,443.3 217.7,441 216.3,438.1C214.8,435.2 214.1,431.9 214.1,428.3C214.1,424.7 214.8,421.3 216.3,418.5C217.8,415.7 219.8,413.4 222.4,411.8C225,410.2 227.8,409.4 231,409.4C234.2,409.4 235.1,409.8 236.9,410.5C238.7,411.3 240.4,412.3 241.7,413.7C243.1,415.1 244.2,416.7 244.9,418.5C245.7,420.3 246.1,422.3 246.1,424.4L244.9,422.6L244.9,412C244.9,411.6 245,411.3 245.3,411C245.6,410.7 245.9,410.6 246.4,410.6L246.4,410.5ZM231.1,444.8C233.8,444.8 236.3,444.1 238.4,442.6C240.5,441.2 242.2,439.2 243.4,436.7C244.6,434.2 245.2,431.4 245.2,428.2C245.2,425 244.6,422.5 243.4,420C242.2,417.5 240.5,415.6 238.4,414.2C236.3,412.8 233.8,412 231.1,412C228.4,412 226,412.7 223.9,414.1C221.8,415.5 220.1,417.4 218.8,419.8C217.6,422.2 216.9,425 216.9,428.2C216.9,431.4 217.5,434.2 218.7,436.7C219.9,439.2 221.6,441.2 223.7,442.6C225.8,444 228.3,444.8 231,444.8L231.1,444.8Z" style="fill:rgb(255,127,102);fill-rule:nonzero;"/>
            <path d="M286.6,392.9C287,392.9 287.4,393 287.7,393.3C288,393.6 288.1,393.9 288.1,394.3L288.1,445.3C288.1,445.7 288,446 287.7,446.3C287.4,446.6 287.1,446.7 286.7,446.7C286.3,446.7 285.9,446.6 285.6,446.3C285.3,446 285.2,445.7 285.2,445.3L285.2,434.9L286.4,433.3C286.4,435 286,436.6 285.3,438.3C284.5,440 283.5,441.5 282.1,442.9C280.7,444.3 279.1,445.4 277.3,446.2C275.5,447 273.5,447.4 271.3,447.4C268.1,447.4 265.2,446.6 262.7,444.9C260.1,443.2 258.1,440.9 256.6,438C255.1,435.1 254.4,431.8 254.4,428.2C254.4,424.6 255.1,421.3 256.6,418.4C258.1,415.5 260.1,413.2 262.7,411.6C265.3,409.9 268.1,409.1 271.3,409.1C274.5,409.1 275.2,409.5 277,410.2C278.8,411 280.4,412 281.8,413.4C283.2,414.8 284.3,416.4 285.2,418.2C286,420 286.4,422 286.4,424.1L285.2,422.3L285.2,394.2C285.2,393.8 285.3,393.5 285.6,393.2C285.9,392.9 286.2,392.8 286.7,392.8L286.6,392.9ZM271.3,444.8C274.1,444.8 276.5,444.1 278.6,442.7C280.7,441.3 282.4,439.3 283.6,436.9C284.8,434.5 285.4,431.6 285.4,428.4C285.4,425.2 284.8,422.4 283.6,420C282.4,417.5 280.7,415.6 278.6,414.2C276.5,412.8 274,412.1 271.3,412.1C268.6,412.1 266.2,412.8 264.1,414.2C262,415.6 260.3,417.5 259,420C257.8,422.5 257.1,425.3 257.1,428.4C257.1,431.5 257.7,434.3 259,436.8C260.3,439.3 261.9,441.2 264.1,442.7C266.2,444.1 268.6,444.9 271.3,444.9L271.3,444.8Z" style="fill:rgb(255,127,102);fill-rule:nonzero;"/>
            <path d="M313,447.6C309.4,447.6 306.1,446.8 303.3,445.3C300.5,443.7 298.3,441.5 296.7,438.7C295.1,435.9 294.3,432.5 294.3,428.7C294.3,424.9 295.1,421.1 296.7,418.3C298.3,415.4 300.3,413.2 302.8,411.7C305.3,410.2 308,409.4 310.8,409.4C313.6,409.4 314.8,409.7 316.8,410.4C318.7,411.1 320.5,412.1 322,413.5C323.5,414.9 324.8,416.6 325.7,418.7C326.6,420.8 327.2,423.2 327.3,426.1C327.3,426.5 327.2,426.8 326.9,427.2C326.6,427.5 326.3,427.7 325.9,427.7L296.2,427.7L295.8,424.9L325.2,424.9L324.5,425.6L324.5,424.3C324.3,421.7 323.4,419.6 322.1,417.8C320.8,416 319,414.7 317.1,413.8C315.2,412.9 313.1,412.5 311,412.5C308.9,412.5 308,412.8 306.4,413.5C304.8,414.2 303.3,415.2 302,416.5C300.6,417.8 299.5,419.5 298.7,421.6C297.8,423.6 297.4,426 297.4,428.7C297.4,431.4 298,434.4 299.2,436.9C300.4,439.4 302.2,441.4 304.5,442.9C306.9,444.4 309.8,445.2 313.2,445.2C316.6,445.2 316.4,444.9 317.9,444.4C319.4,443.8 320.7,443.1 321.8,442.2C323,441.3 323.9,440.3 324.6,439.2C325,438.8 325.4,438.5 325.8,438.5C326.2,438.5 326.4,438.6 326.7,438.9C326.9,439.2 327.1,439.5 327.1,439.8C327.1,440.1 327.1,440.4 326.8,440.7C325.3,442.6 323.4,444.3 321,445.8C318.6,447.3 316,448 313.2,448L313,447.6Z" style="fill:rgb(255,127,102);fill-rule:nonzero;"/>
            <path d="M349.2,410.1C351.9,410.1 354.4,410.8 356.7,412.3C359,413.8 360.5,416.1 361.3,419.3L360.4,420L360.8,418.6C361.4,417 362.5,415.6 364.1,414.3C365.7,413 367.5,412 369.4,411.3C371.4,410.5 373.3,410.2 375.1,410.2C378,410.2 380.4,410.8 382.3,412.1C384.2,413.4 385.6,415.1 386.5,417.2C387.4,419.3 387.8,421.7 387.8,424.4L387.8,445.6C387.8,446 387.7,446.3 387.4,446.6C387.1,446.9 386.8,447 386.3,447C385.8,447 385.5,446.9 385.2,446.6C384.9,446.3 384.8,446 384.8,445.6L384.8,424.7C384.8,422.6 384.4,420.6 383.7,418.8C383,417 381.9,415.6 380.4,414.6C378.9,413.6 377,413 374.6,413C372.2,413 370.5,413.5 368.5,414.6C366.5,415.6 364.9,417.1 363.6,418.8C362.3,420.6 361.7,422.5 361.7,424.7L361.7,445.6C361.7,446 361.6,446.3 361.3,446.6C361,446.9 360.7,447 360.2,447C359.7,447 359.4,446.9 359.1,446.6C358.8,446.3 358.7,446 358.7,445.6L358.7,424.3C358.7,422.2 358.4,420.3 357.7,418.6C357,416.9 356,415.5 354.6,414.5C353.2,413.5 351.3,413 349,413C346.7,413 345,413.5 343.1,414.5C341.2,415.5 339.6,416.9 338.3,418.6C337,420.3 336.4,422.2 336.4,424.3L336.4,445.6C336.4,446 336.3,446.3 336,446.6C335.7,446.9 335.4,447 335,447C334.6,447 334.2,446.9 333.9,446.6C333.6,446.3 333.5,446 333.5,445.6L333.5,412.1C333.5,411.7 333.6,411.4 333.9,411.1C334.2,410.8 334.5,410.7 334.9,410.7C335.3,410.7 335.7,410.8 336,411.1C336.3,411.4 336.4,411.7 336.4,412.1L336.4,420L334.2,423.7C334.2,422 334.6,420.3 335.4,418.7C336.2,417.1 337.3,415.7 338.7,414.4C340.1,413.1 341.7,412.1 343.4,411.3C345.2,410.5 347,410.1 348.9,410.1L349.2,410.1Z" style="fill:rgb(255,127,102);fill-rule:nonzero;"/>
            <path d="M423.5,409.3C423.9,409.3 424.3,409.4 424.6,409.7C424.9,410 425,410.3 425,410.7L425,443.2C425,446.9 424.2,450.2 422.7,452.9C421.2,455.6 419.2,457.7 416.6,459.2C414,460.7 411.1,461.4 407.8,461.4C404.5,461.4 403.6,461.1 401.8,460.6C400,460.1 398.6,459.4 397.5,458.6C397.2,458.4 396.9,458.1 396.7,457.7C396.5,457.4 396.5,457 396.7,456.6C396.9,456.2 397.2,455.9 397.5,455.8C397.9,455.7 398.2,455.8 398.6,455.9C399.4,456.4 400.7,457 402.4,457.6C404.1,458.3 406,458.6 408,458.6C410,458.6 413.3,457.9 415.4,456.6C417.5,455.3 419.2,453.5 420.4,451.1C421.6,448.8 422.2,446.1 422.2,443L422.2,437.6L422.2,439.4C421.7,440.9 420.6,442.2 419.2,443.4C417.8,444.6 416.3,445.5 414.5,446.2C412.8,446.9 411,447.3 409.1,447.3C406.1,447.3 403.6,446.7 401.7,445.5C399.8,444.3 398.4,442.7 397.5,440.6C396.6,438.5 396.2,436.1 396.2,433.2L396.2,410.5C396.2,410.1 396.3,409.8 396.6,409.5C396.9,409.2 397.2,409.1 397.7,409.1C398.2,409.1 398.5,409.2 398.8,409.5C399.1,409.8 399.2,410.1 399.2,410.5L399.2,433.2C399.2,436.7 400,439.4 401.5,441.4C403,443.4 405.6,444.5 409.3,444.5C413,444.5 413.6,444 415.5,442.9C417.5,441.8 419.1,440.4 420.3,438.6C421.5,436.8 422.2,435.1 422.2,433.2L422.2,410.5C422.2,410.1 422.3,409.8 422.6,409.5C422.9,409.2 423.2,409.1 423.7,409.1L423.5,409.3Z" style="fill:rgb(255,127,102);fill-rule:nonzero;"/>
        </g>
        <g transform="matrix(1.00005,0,0,1.00005,0,0)">
            <path d="M212.7,290.7C218,294.5 221.9,299.6 224.5,306C227.1,312.4 228.4,319.5 228.4,327.2C228.4,334.9 227.1,342.3 224.5,348.7C221.9,355.1 217.9,360.1 212.7,363.9C207.4,367.6 200.9,369.5 193.2,369.5L162.4,369.5C161.4,369.5 160.5,369.2 159.8,368.5C159.1,367.8 158.8,367 158.8,365.9L158.8,288.6C158.8,287.6 159.1,286.7 159.8,286C160.5,285.3 161.3,285 162.4,285L193.2,285C200.9,285 207.4,286.9 212.7,290.7ZM213.6,352.7C218.4,346.2 220.7,337.7 220.7,327.3C220.7,316.9 219.7,314.9 217.7,309.6C215.7,304.3 212.5,300.1 208.2,296.9C203.9,293.7 198.5,292.1 192,292.1L166.4,292.1L166.4,362.4L192,362.4C201.7,362.4 208.9,359.2 213.6,352.7Z" style="fill:white;fill-rule:nonzero;"/>
            <path d="M286.4,309.2C287.1,309.9 287.4,310.8 287.4,311.8L287.4,345.9C287.4,353.8 285.2,359.9 280.8,364.1C276.4,368.3 270.2,370.4 262.4,370.4C254.6,370.4 248.6,368.3 244.2,364.1C239.8,359.9 237.6,353.8 237.6,345.9L237.6,311.8C237.6,310.8 237.9,309.9 238.6,309.2C239.3,308.5 240.1,308.2 241.2,308.2C242.3,308.2 243.1,308.5 243.8,309.2C244.5,309.9 244.8,310.8 244.8,311.8L244.8,345.9C244.8,351.7 246.3,356.1 249.4,359.1C252.5,362.1 256.8,363.6 262.3,363.6C267.8,363.6 272.3,362.1 275.4,359.1C278.5,356.1 280.1,351.7 280.1,345.9L280.1,311.8C280.1,310.8 280.4,309.9 281.1,309.2C281.8,308.5 282.6,308.2 283.7,308.2C284.8,308.2 285.6,308.5 286.3,309.2L286.4,309.2Z" style="fill:white;fill-rule:nonzero;"/>
            <path d="M350.2,365.9C350.2,366.9 349.8,367.8 348.9,368.5C348.1,369.2 347.3,369.5 346.5,369.5C345.5,369.5 344.6,369.1 343.8,368.2L317.1,339.9L308,347.6L308,365.8C308,366.8 307.7,367.7 307,368.4C306.3,369.1 305.4,369.4 304.4,369.4C303.4,369.4 302.5,369.1 301.8,368.4C301.1,367.7 300.8,366.9 300.8,365.8L300.8,283.7C300.8,282.7 301.1,281.8 301.8,281.1C302.5,280.4 303.3,280.1 304.4,280.1C305.5,280.1 306.3,280.4 307,281.1C307.7,281.8 308,282.7 308,283.7L308,338.8L342.9,308.7C343.6,307.9 344.5,307.5 345.4,307.5C346.3,307.5 347.1,307.9 347.8,308.6C348.5,309.4 348.9,310.2 348.9,311.1C348.9,312 348.5,313 347.6,313.9L322.7,335L348.9,363C349.6,363.8 350,364.7 350,365.8L350.2,365.9Z" style="fill:white;fill-rule:nonzero;"/>
            <path d="M407.1,337.6C406.4,338.3 405.5,338.6 404.6,338.6L358.9,338.6C358.9,343.4 359.9,347.8 361.9,351.6C363.9,355.4 366.7,358.4 370.4,360.7C374.1,362.9 378.4,364 383.4,364C388.4,364 390.7,363.2 393.8,361.6C396.9,360 399.3,357.9 401.2,355.4C402.1,354.7 402.9,354.3 403.7,354.3C404.5,354.3 405.2,354.6 405.9,355.3C406.5,355.9 406.9,356.7 406.9,357.5C406.9,358.3 406.5,359.2 405.7,360C403.1,363.1 399.9,365.7 396,367.7C392.1,369.7 388,370.7 383.6,370.7C377.4,370.7 371.9,369.4 367.2,366.7C362.4,364 358.7,360.3 356.1,355.5C353.4,350.7 352.1,345.2 352.1,338.9C352.1,332.6 353.4,326.5 356,321.6C358.6,316.6 362.1,312.9 366.4,310.2C370.7,307.6 375.4,306.3 380.3,306.3C385.2,306.3 389.7,307.4 393.9,309.7C398.1,312 401.6,315.3 404.2,319.6C406.9,323.9 408.2,329.1 408.3,335.1C408.3,336.1 407.9,336.9 407.2,337.6L407.1,337.6ZM367.2,318.2C363.2,321.4 360.7,326.1 359.5,332.1L400.7,332.1L400.7,331.1C400.3,327.5 399.1,324.3 397.1,321.6C395.1,318.9 392.6,316.8 389.6,315.4C386.6,314 383.5,313.3 380.2,313.3C375.5,313.3 371.2,314.9 367.2,318.1L367.2,318.2Z" style="fill:white;fill-rule:nonzero;"/>
        </g>
    </g>
    <defs>
        <linearGradient id="_Linear1" x1="0" y1="0" x2="1" y2="0" gradientUnits="userSpaceOnUse" gradientTransform="matrix(283.5,0,0,283.5,141.7,244.7)"><stop offset="0" style="stop-color:rgb(255,127,102);stop-opacity:1"/><stop offset="1" style="stop-color:rgb(255,114,84);stop-opacity:1"/></linearGradient>
    </defs>
</svg>
