<?xml version="1.0" encoding="UTF-8" standalone="no"?>
<!DOCTYPE svg PUBLIC "-//W3C//DTD SVG 1.1//EN" "http://www.w3.org/Graphics/SVG/1.1/DTD/svg11.dtd">
<svg width="100%" height="100%" viewBox="0 0 134 169" version="1.1" xmlns="http://www.w3.org/2000/svg" xmlns:xlink="http://www.w3.org/1999/xlink" xml:space="preserve" xmlns:serif="http://www.serif.com/" style="fill-rule:evenodd;clip-rule:evenodd;stroke-linejoin:round;stroke-miterlimit:2;">
    <g transform="matrix(1,0,0,1,-200,-4249.01)">
        <g transform="matrix(1.33333,0,0,1.33333,0,0)">
            <g transform="matrix(1,0,0,1,173.451,3276.61)">
                <path d="M0,-21.436C-1.52,-22.558 -3.431,-23.119 -5.732,-23.119L-14.766,-23.119L-14.766,1.683L-5.732,1.683C-2.323,1.683 0.219,0.54 1.896,-1.748C3.572,-4.034 4.41,-7.025 4.41,-10.718C4.41,-13.019 4.055,-15.1 3.345,-16.961C2.635,-18.822 1.519,-20.313 0,-21.436" style="fill:rgb(128,127,131);fill-rule:nonzero;"/>
            </g>
        </g>
        <g transform="matrix(1.33333,0,0,1.33333,0,0)">
            <g transform="matrix(1,0,0,1,237.416,3266.85)">
                <path d="M0,-5.114C-1.066,-5.611 -2.167,-5.86 -3.303,-5.86C-4.951,-5.86 -6.478,-5.291 -7.884,-4.155C-9.29,-3.019 -10.193,-1.385 -10.59,0.746L3.942,0.746L3.942,0.405C3.799,-0.874 3.373,-1.988 2.663,-2.941C1.953,-3.892 1.065,-4.617 0,-5.114" style="fill:rgb(128,127,131);fill-rule:nonzero;"/>
            </g>
        </g>
        <g transform="matrix(1.33333,0,0,1.33333,0,0)">
            <g transform="matrix(1,0,0,1,243.617,3203.98)">
                <path d="M0,65.55C-0.256,65.792 -0.554,65.912 -0.895,65.912L-17.004,65.912C-17.004,67.617 -16.656,69.144 -15.959,70.493C-15.264,71.843 -14.269,72.909 -12.976,73.69C-11.684,74.471 -10.157,74.862 -8.395,74.862C-7.032,74.862 -5.811,74.578 -4.73,74.009C-3.651,73.441 -2.785,72.717 -2.131,71.836C-1.818,71.58 -1.52,71.452 -1.236,71.452C-0.952,71.452 -0.697,71.566 -0.469,71.793C-0.242,72.021 -0.128,72.277 -0.128,72.56C-0.128,72.873 -0.271,73.171 -0.554,73.455C-1.463,74.563 -2.607,75.473 -3.985,76.183C-5.363,76.892 -6.818,77.248 -8.353,77.248C-10.541,77.248 -12.472,76.779 -14.148,75.842C-15.825,74.904 -17.132,73.59 -18.069,71.9C-19.007,70.209 -19.475,68.256 -19.475,66.04C-19.475,63.711 -19.014,61.672 -18.09,59.925C-17.167,58.178 -15.938,56.842 -14.404,55.919C-12.87,54.996 -11.237,54.534 -9.503,54.534C-7.798,54.534 -6.2,54.932 -4.709,55.727C-3.217,56.523 -2.003,57.687 -1.065,59.222C-0.128,60.756 0.355,62.574 0.383,64.676C0.383,65.017 0.256,65.309 0,65.55M-20.519,76.46C-20.818,76.701 -21.095,76.822 -21.35,76.822C-21.72,76.822 -22.032,76.666 -22.288,76.353L-31.706,66.381L-34.902,69.108L-34.902,75.543C-34.902,75.913 -35.023,76.219 -35.264,76.46C-35.506,76.701 -35.812,76.822 -36.181,76.822C-36.55,76.822 -36.856,76.701 -37.097,76.46C-37.339,76.219 -37.459,75.913 -37.459,75.543L-37.459,46.565C-37.459,46.196 -37.339,45.89 -37.097,45.648C-36.856,45.407 -36.55,45.286 -36.181,45.286C-35.812,45.286 -35.506,45.407 -35.264,45.648C-35.023,45.89 -34.902,46.196 -34.902,46.565L-34.902,65.997L-22.586,55.386C-22.33,55.102 -22.032,54.96 -21.691,54.96C-21.379,54.96 -21.095,55.095 -20.839,55.365C-20.583,55.635 -20.455,55.926 -20.455,56.238C-20.455,56.58 -20.612,56.907 -20.924,57.219L-29.703,64.676L-20.455,74.563C-20.2,74.847 -20.072,75.174 -20.072,75.543C-20.072,75.913 -20.221,76.219 -20.519,76.46M-42.232,68.469C-42.232,71.254 -43.013,73.391 -44.575,74.883C-46.138,76.374 -48.298,77.12 -51.053,77.12C-53.78,77.12 -55.918,76.374 -57.466,74.883C-59.015,73.391 -59.789,71.254 -59.789,68.469L-59.789,56.452C-59.789,56.083 -59.669,55.777 -59.427,55.535C-59.186,55.294 -58.88,55.173 -58.511,55.173C-58.142,55.173 -57.836,55.294 -57.594,55.535C-57.353,55.777 -57.232,56.083 -57.232,56.452L-57.232,68.469C-57.232,70.515 -56.693,72.07 -55.613,73.135C-54.533,74.201 -53.013,74.734 -51.053,74.734C-49.065,74.734 -47.523,74.201 -46.429,73.135C-45.336,72.07 -44.789,70.515 -44.789,68.469L-44.789,56.452C-44.789,56.083 -44.668,55.777 -44.426,55.535C-44.185,55.294 -43.879,55.173 -43.51,55.173C-43.141,55.173 -42.836,55.294 -42.594,55.535C-42.353,55.777 -42.232,56.083 -42.232,56.452L-42.232,68.469ZM-64.413,69.492C-65.336,71.737 -66.728,73.519 -68.589,74.84C-70.45,76.162 -72.744,76.822 -75.471,76.822L-86.338,76.822C-86.708,76.822 -87.013,76.701 -87.255,76.46C-87.496,76.219 -87.616,75.913 -87.616,75.543L-87.616,48.27C-87.616,47.901 -87.496,47.595 -87.255,47.353C-87.013,47.112 -86.708,46.991 -86.338,46.991L-75.471,46.991C-72.744,46.991 -70.45,47.666 -68.589,49.015C-66.728,50.365 -65.336,52.169 -64.413,54.427C-63.49,56.686 -63.028,59.179 -63.028,61.907C-63.028,64.719 -63.49,67.248 -64.413,69.492M-87.617,-10.224C-87.617,-10.777 -87.169,-11.225 -86.617,-11.225L-0.617,-11.225C-0.065,-11.225 0.383,-10.777 0.383,-10.224L0.383,40.488C0.383,40.764 0.159,40.988 -0.117,40.988L-1.797,40.988C-2.073,40.988 -2.297,40.764 -2.297,40.488L-2.297,-8.545L-84.937,-8.545L-84.937,40.488C-84.937,40.764 -85.16,40.988 -85.437,40.988L-87.117,40.988C-87.393,40.988 -87.617,40.764 -87.617,40.488L-87.617,-10.224ZM5.883,-17.225L-93.117,-17.225C-93.393,-17.225 -93.617,-17.001 -93.617,-16.725L-93.617,82.275C-93.617,82.551 -93.393,82.775 -93.117,82.775L5.883,82.775C6.159,82.775 6.383,82.551 6.383,82.275L6.383,-16.725C6.383,-17.001 6.159,-17.225 5.883,-17.225" style="fill:rgb(128,127,131);fill-rule:nonzero;"/>
            </g>
        </g>
        <g transform="matrix(1.33333,0,0,1.33333,0,0)">
            <g transform="matrix(1,0,0,1,158.282,3300.92)">
                <path d="M0,1.363C-0.369,1.089 -0.797,0.861 -1.286,0.681C-1.774,0.502 -2.302,0.343 -2.868,0.206C-3.571,0.017 -4.201,-0.189 -4.758,-0.411C-5.315,-0.634 -5.76,-0.917 -6.095,-1.26C-6.429,-1.603 -6.614,-2.04 -6.648,-2.572C-6.648,-3.137 -6.494,-3.604 -6.185,-3.973C-5.876,-4.342 -5.478,-4.62 -4.989,-4.809C-4.501,-4.998 -3.974,-5.092 -3.407,-5.092C-2.739,-5.092 -2.109,-4.972 -1.518,-4.732C-0.926,-4.492 -0.408,-4.123 0.038,-3.626C0.124,-3.523 0.227,-3.472 0.346,-3.472C0.466,-3.472 0.578,-3.506 0.682,-3.575C0.801,-3.694 0.865,-3.827 0.875,-3.973C0.883,-4.119 0.818,-4.243 0.682,-4.346C0.286,-4.792 -0.142,-5.139 -0.605,-5.388C-1.067,-5.636 -1.53,-5.812 -1.993,-5.915C-2.456,-6.018 -2.893,-6.069 -3.305,-6.069C-4.162,-6.069 -4.917,-5.919 -5.568,-5.619C-6.219,-5.319 -6.725,-4.903 -7.085,-4.372C-7.445,-3.84 -7.625,-3.24 -7.625,-2.572C-7.625,-2.006 -7.505,-1.517 -7.265,-1.106C-7.025,-0.694 -6.699,-0.338 -6.288,-0.039C-5.876,0.262 -5.401,0.51 -4.861,0.707C-4.32,0.904 -3.751,1.08 -3.151,1.234C-2.585,1.372 -2.045,1.543 -1.53,1.749C-1.016,1.954 -0.596,2.233 -0.27,2.584C0.055,2.936 0.218,3.403 0.218,3.986C0.218,4.535 0.051,4.998 -0.283,5.375C-0.617,5.752 -1.046,6.035 -1.569,6.223C-2.092,6.412 -2.636,6.506 -3.202,6.506C-4.145,6.506 -4.963,6.309 -5.658,5.915C-6.352,5.52 -6.922,5.006 -7.368,4.372C-7.471,4.252 -7.595,4.188 -7.741,4.179C-7.887,4.17 -8.003,4.209 -8.088,4.295C-8.208,4.381 -8.272,4.488 -8.281,4.616C-8.29,4.745 -8.234,4.912 -8.114,5.118C-7.445,5.941 -6.699,6.532 -5.876,6.892C-5.054,7.252 -4.197,7.432 -3.305,7.432C-2.431,7.432 -1.655,7.291 -0.978,7.008C-0.301,6.725 0.231,6.322 0.617,5.799C1.003,5.276 1.196,4.655 1.196,3.935C1.196,3.317 1.088,2.803 0.875,2.392C0.659,1.98 0.368,1.637 0,1.363" style="fill:rgb(128,127,131);fill-rule:nonzero;"/>
            </g>
        </g>
        <g transform="matrix(1.33333,0,0,1.33333,0,0)">
            <g transform="matrix(1,0,0,1,166.318,3304.32)">
                <path d="M0,-9.155L-2.829,-9.155L-2.829,-12.421C-2.829,-12.558 -2.876,-12.678 -2.97,-12.781C-3.065,-12.884 -3.189,-12.935 -3.343,-12.935C-3.48,-12.935 -3.6,-12.884 -3.703,-12.781C-3.806,-12.678 -3.858,-12.558 -3.858,-12.421L-3.858,-9.155L-5.966,-9.155C-6.086,-9.155 -6.198,-9.108 -6.3,-9.014C-6.403,-8.919 -6.455,-8.803 -6.455,-8.666C-6.455,-8.546 -6.403,-8.435 -6.3,-8.332C-6.198,-8.229 -6.086,-8.178 -5.966,-8.178L-3.858,-8.178L-3.858,1.029C-3.858,1.783 -3.755,2.353 -3.549,2.739C-3.343,3.125 -3.09,3.391 -2.79,3.536C-2.491,3.682 -2.208,3.759 -1.942,3.768C-1.676,3.776 -1.492,3.78 -1.389,3.78C-1.097,3.78 -0.853,3.725 -0.655,3.613C-0.459,3.502 -0.36,3.369 -0.36,3.215C-0.36,3.095 -0.403,2.988 -0.489,2.893C-0.575,2.799 -0.677,2.752 -0.797,2.752C-0.918,2.752 -1.02,2.769 -1.106,2.803C-1.192,2.838 -1.295,2.855 -1.415,2.855C-1.62,2.855 -1.835,2.816 -2.057,2.739C-2.28,2.662 -2.464,2.491 -2.61,2.225C-2.756,1.959 -2.829,1.543 -2.829,0.977L-2.829,-8.178L0,-8.178C0.137,-8.178 0.253,-8.225 0.347,-8.319C0.441,-8.413 0.489,-8.529 0.489,-8.666C0.489,-8.786 0.441,-8.898 0.347,-9.001C0.253,-9.104 0.137,-9.155 0,-9.155" style="fill:rgb(128,127,131);fill-rule:nonzero;"/>
            </g>
        </g>
        <g transform="matrix(1.33333,0,0,1.33333,0,0)">
            <g transform="matrix(1,0,0,1,174.933,3307.99)">
                <path d="M0,-13.038C-0.274,-13.106 -0.532,-13.141 -0.772,-13.141C-1.611,-13.141 -2.353,-12.957 -2.996,-12.588C-3.639,-12.219 -4.183,-11.739 -4.629,-11.148C-5.023,-10.625 -5.328,-10.063 -5.554,-9.468L-5.554,-12.215C-5.554,-12.352 -5.602,-12.472 -5.696,-12.575C-5.79,-12.678 -5.915,-12.729 -6.069,-12.729C-6.206,-12.729 -6.326,-12.678 -6.429,-12.575C-6.532,-12.472 -6.583,-12.352 -6.583,-12.215L-6.583,-0.411C-6.583,-0.274 -6.536,-0.154 -6.442,-0.051C-6.348,0.051 -6.223,0.103 -6.069,0.103C-5.932,0.103 -5.812,0.051 -5.709,-0.051C-5.606,-0.154 -5.554,-0.274 -5.554,-0.411L-5.554,-6.84C-5.554,-7.44 -5.426,-8.058 -5.169,-8.692C-4.912,-9.326 -4.565,-9.913 -4.127,-10.454C-3.69,-10.994 -3.206,-11.427 -2.674,-11.752C-2.143,-12.078 -1.603,-12.241 -1.054,-12.241C-0.78,-12.241 -0.57,-12.202 -0.424,-12.125C-0.279,-12.048 -0.154,-12.009 -0.051,-12.009C0.086,-12.009 0.197,-12.061 0.283,-12.163C0.369,-12.266 0.412,-12.395 0.412,-12.549C0.412,-12.807 0.274,-12.969 0,-13.038" style="fill:rgb(128,127,131);fill-rule:nonzero;"/>
            </g>
        </g>
        <g transform="matrix(1.33333,0,0,1.33333,0,0)">
            <g transform="matrix(1,0,0,1,185.76,3298.67)">
                <path d="M0,5.863C-0.429,6.746 -1.02,7.441 -1.774,7.946C-2.529,8.452 -3.386,8.705 -4.346,8.705C-5.306,8.705 -6.163,8.452 -6.918,7.946C-7.672,7.441 -8.264,6.746 -8.692,5.863C-9.121,4.98 -9.335,3.982 -9.335,2.867C-9.335,1.753 -9.116,0.767 -8.679,-0.09C-8.242,-0.947 -7.646,-1.62 -6.892,-2.109C-6.138,-2.598 -5.289,-2.842 -4.346,-2.842C-3.386,-2.842 -2.529,-2.589 -1.774,-2.083C-1.02,-1.577 -0.429,-0.892 0,-0.026C0.429,0.84 0.643,1.804 0.643,2.867C0.643,3.982 0.429,4.98 0,5.863M1.054,-3.408C0.9,-3.408 0.775,-3.356 0.682,-3.253C0.587,-3.151 0.54,-3.031 0.54,-2.894L0.54,-0.618C0.266,-1.261 -0.116,-1.822 -0.604,-2.302C-1.093,-2.782 -1.663,-3.155 -2.315,-3.421C-2.966,-3.686 -3.66,-3.819 -4.397,-3.819C-5.529,-3.819 -6.545,-3.532 -7.445,-2.958C-8.345,-2.383 -9.057,-1.595 -9.579,-0.592C-10.102,0.411 -10.364,1.564 -10.364,2.867C-10.364,4.153 -10.106,5.31 -9.592,6.339C-9.078,7.367 -8.371,8.182 -7.471,8.782C-6.57,9.382 -5.546,9.682 -4.397,9.682C-3.643,9.682 -2.94,9.54 -2.288,9.258C-1.638,8.974 -1.071,8.602 -0.592,8.139C-0.111,7.676 0.266,7.162 0.54,6.596L0.54,8.91C0.54,9.048 0.587,9.167 0.682,9.27C0.775,9.373 0.9,9.425 1.054,9.425C1.192,9.425 1.312,9.373 1.415,9.27C1.518,9.167 1.569,9.048 1.569,8.91L1.569,-2.894C1.569,-3.031 1.521,-3.151 1.427,-3.253C1.333,-3.356 1.209,-3.408 1.054,-3.408" style="fill:rgb(128,127,131);fill-rule:nonzero;"/>
            </g>
        </g>
        <g transform="matrix(1.33333,0,0,1.33333,0,0)">
            <g transform="matrix(1,0,0,1,195.069,3304.32)">
                <path d="M0,-9.155L-2.829,-9.155L-2.829,-12.421C-2.829,-12.558 -2.876,-12.678 -2.97,-12.781C-3.065,-12.884 -3.189,-12.935 -3.343,-12.935C-3.48,-12.935 -3.6,-12.884 -3.703,-12.781C-3.806,-12.678 -3.858,-12.558 -3.858,-12.421L-3.858,-9.155L-5.966,-9.155C-6.086,-9.155 -6.198,-9.108 -6.3,-9.014C-6.403,-8.919 -6.455,-8.803 -6.455,-8.666C-6.455,-8.546 -6.403,-8.435 -6.3,-8.332C-6.198,-8.229 -6.086,-8.178 -5.966,-8.178L-3.858,-8.178L-3.858,1.029C-3.858,1.783 -3.755,2.353 -3.549,2.739C-3.343,3.125 -3.09,3.391 -2.79,3.536C-2.491,3.682 -2.208,3.759 -1.942,3.768C-1.676,3.776 -1.492,3.78 -1.389,3.78C-1.097,3.78 -0.853,3.725 -0.655,3.613C-0.459,3.502 -0.36,3.369 -0.36,3.215C-0.36,3.095 -0.403,2.988 -0.489,2.893C-0.575,2.799 -0.677,2.752 -0.797,2.752C-0.918,2.752 -1.02,2.769 -1.106,2.803C-1.192,2.838 -1.295,2.855 -1.415,2.855C-1.62,2.855 -1.835,2.816 -2.057,2.739C-2.28,2.662 -2.465,2.491 -2.61,2.225C-2.756,1.959 -2.829,1.543 -2.829,0.977L-2.829,-8.178L0,-8.178C0.137,-8.178 0.253,-8.225 0.347,-8.319C0.441,-8.413 0.489,-8.529 0.489,-8.666C0.489,-8.786 0.441,-8.898 0.347,-9.001C0.253,-9.104 0.137,-9.155 0,-9.155" style="fill:rgb(128,127,131);fill-rule:nonzero;"/>
            </g>
        </g>
        <g transform="matrix(1.33333,0,0,1.33333,0,0)">
            <g transform="matrix(1,0,0,1,197.628,3304.14)">
                <path d="M0,-5.067C0.3,-5.787 0.69,-6.383 1.17,-6.854C1.65,-7.325 2.173,-7.677 2.739,-7.909C3.304,-8.14 3.845,-8.256 4.359,-8.256C5.096,-8.256 5.808,-8.097 6.494,-7.78C7.179,-7.463 7.767,-6.996 8.255,-6.379C8.744,-5.761 9.031,-4.998 9.117,-4.09L9.117,-3.858L-0.343,-3.858C-0.267,-4.293 -0.155,-4.696 0,-5.067M9.657,-2.881C9.794,-2.881 9.914,-2.937 10.017,-3.048C10.12,-3.16 10.171,-3.284 10.171,-3.421C10.136,-4.433 9.953,-5.302 9.618,-6.031C9.284,-6.76 8.847,-7.369 8.306,-7.857C7.767,-8.346 7.153,-8.706 6.468,-8.937C5.782,-9.169 5.079,-9.284 4.359,-9.284C3.364,-9.284 2.426,-9.015 1.543,-8.474C0.66,-7.934 -0.06,-7.159 -0.617,-6.147C-1.174,-5.135 -1.453,-3.91 -1.453,-2.47C-1.453,-1.115 -1.17,0.063 -0.604,1.066C-0.038,2.069 0.737,2.845 1.723,3.394C2.709,3.943 3.845,4.217 5.13,4.217C6.142,4.217 7.063,3.96 7.895,3.445C8.726,2.931 9.408,2.331 9.939,1.645C10.008,1.56 10.043,1.457 10.043,1.336C10.043,1.217 9.999,1.109 9.914,1.015C9.828,0.921 9.725,0.873 9.605,0.873C9.451,0.873 9.305,0.951 9.168,1.105C8.911,1.482 8.577,1.834 8.165,2.159C7.754,2.485 7.291,2.747 6.777,2.944C6.262,3.141 5.713,3.239 5.13,3.239C3.913,3.239 2.889,2.974 2.057,2.442C1.226,1.911 0.6,1.208 0.18,0.334C-0.24,-0.541 -0.45,-1.501 -0.45,-2.547C-0.45,-2.662 -0.441,-2.769 -0.436,-2.881L9.657,-2.881Z" style="fill:rgb(128,127,131);fill-rule:nonzero;"/>
            </g>
        </g>
        <g transform="matrix(1.33333,0,0,1.33333,0,0)">
            <g transform="matrix(1,0,0,1,219.86,3303.48)">
                <path d="M0,1.132C-0.463,1.998 -1.089,2.675 -1.877,3.164C-2.666,3.652 -3.558,3.896 -4.552,3.896C-5.546,3.896 -6.442,3.644 -7.239,3.138C-8.036,2.632 -8.662,1.942 -9.116,1.067C-9.571,0.193 -9.798,-0.792 -9.798,-1.89C-9.798,-3.004 -9.571,-3.994 -9.116,-4.86C-8.662,-5.725 -8.036,-6.407 -7.239,-6.905C-6.442,-7.401 -5.546,-7.65 -4.552,-7.65C-3.558,-7.65 -2.666,-7.41 -1.877,-6.93C-1.089,-6.45 -0.463,-5.777 0,-4.911C0.463,-4.045 0.694,-3.038 0.694,-1.89C0.694,-0.741 0.463,0.266 0,1.132M1.106,-8.216C0.951,-8.216 0.827,-8.165 0.733,-8.062C0.639,-7.959 0.592,-7.839 0.592,-7.702L0.592,-5.51C0.561,-5.572 0.536,-5.634 0.502,-5.696C0.218,-6.21 -0.176,-6.69 -0.682,-7.136C-1.187,-7.582 -1.774,-7.941 -2.443,-8.216C-3.111,-8.49 -3.832,-8.628 -4.603,-8.628C-5.786,-8.628 -6.845,-8.336 -7.779,-7.753C-8.714,-7.17 -9.455,-6.368 -10.004,-5.349C-10.553,-4.329 -10.826,-3.175 -10.826,-1.89C-10.826,-0.604 -10.553,0.549 -10.004,1.569C-9.455,2.589 -8.714,3.395 -7.779,3.986C-6.845,4.578 -5.786,4.874 -4.603,4.874C-4.089,4.874 -3.553,4.801 -2.996,4.655C-2.439,4.509 -1.907,4.278 -1.402,3.961C-0.896,3.644 -0.446,3.228 -0.052,2.713C0.204,2.38 0.415,1.996 0.592,1.569L0.592,3.357C0.592,4.968 0.124,6.275 -0.81,7.278C-1.744,8.281 -3.026,8.783 -4.655,8.783C-5.118,8.783 -5.538,8.753 -5.915,8.693C-6.292,8.632 -6.614,8.56 -6.879,8.474C-7.145,8.388 -7.355,8.32 -7.509,8.268C-7.886,8.114 -8.148,7.942 -8.294,7.754C-8.439,7.565 -8.598,7.471 -8.769,7.471C-8.907,7.471 -9.014,7.514 -9.091,7.599C-9.168,7.685 -9.207,7.797 -9.207,7.934C-9.207,8.243 -8.975,8.534 -8.512,8.808C-8.049,9.083 -7.471,9.31 -6.776,9.49C-6.082,9.67 -5.392,9.76 -4.706,9.76C-3.455,9.76 -2.358,9.503 -1.415,8.988C-0.472,8.474 0.27,7.737 0.81,6.777C1.35,5.816 1.62,4.676 1.62,3.357L1.62,-7.702C1.62,-7.839 1.573,-7.959 1.478,-8.062C1.384,-8.165 1.26,-8.216 1.106,-8.216" style="fill:rgb(128,127,131);fill-rule:nonzero;"/>
            </g>
        </g>
        <g transform="matrix(1.33333,0,0,1.33333,0,0)">
            <g transform="matrix(1,0,0,1,224.977,3293.11)">
                <path d="M0,-1.852C-0.274,-1.852 -0.497,-1.775 -0.669,-1.621C-0.84,-1.466 -0.926,-1.269 -0.926,-1.029L-0.926,-0.823C-0.926,-0.583 -0.845,-0.386 -0.682,-0.232C-0.519,-0.078 -0.3,0 -0.025,0C0.231,0 0.441,-0.078 0.604,-0.232C0.767,-0.386 0.849,-0.583 0.849,-0.823L0.849,-1.029C0.849,-1.269 0.767,-1.466 0.604,-1.621C0.441,-1.775 0.24,-1.852 0,-1.852" style="fill:rgb(128,127,131);fill-rule:nonzero;"/>
            </g>
        </g>
        <g transform="matrix(1.33333,0,0,1.33333,0,0)">
            <g transform="matrix(1,0,0,1,224.952,3308.1)">
                <path d="M0,-13.244C-0.138,-13.244 -0.257,-13.192 -0.36,-13.09C-0.463,-12.987 -0.514,-12.867 -0.514,-12.73L-0.514,-0.514C-0.514,-0.377 -0.467,-0.257 -0.373,-0.155C-0.279,-0.052 -0.154,0 0,0C0.137,0 0.257,-0.052 0.36,-0.155C0.463,-0.257 0.514,-0.377 0.514,-0.514L0.514,-12.73C0.514,-12.867 0.467,-12.987 0.373,-13.09C0.278,-13.192 0.154,-13.244 0,-13.244" style="fill:rgb(128,127,131);fill-rule:nonzero;"/>
            </g>
        </g>
        <g transform="matrix(1.33333,0,0,1.33333,0,0)">
            <g transform="matrix(1,0,0,1,248.804,3300.92)">
                <path d="M0,1.363C-0.369,1.089 -0.797,0.861 -1.286,0.681C-1.774,0.502 -2.302,0.343 -2.867,0.206C-3.571,0.017 -4.201,-0.189 -4.758,-0.411C-5.315,-0.634 -5.761,-0.917 -6.095,-1.26C-6.429,-1.603 -6.614,-2.04 -6.648,-2.572C-6.648,-3.137 -6.494,-3.604 -6.185,-3.973C-5.876,-4.342 -5.478,-4.62 -4.989,-4.809C-4.501,-4.998 -3.973,-5.092 -3.407,-5.092C-2.739,-5.092 -2.109,-4.972 -1.517,-4.732C-0.926,-4.492 -0.407,-4.123 0.038,-3.626C0.124,-3.523 0.227,-3.472 0.347,-3.472C0.467,-3.472 0.579,-3.506 0.682,-3.575C0.801,-3.694 0.865,-3.827 0.875,-3.973C0.883,-4.119 0.818,-4.243 0.682,-4.346C0.286,-4.792 -0.141,-5.139 -0.605,-5.388C-1.067,-5.636 -1.53,-5.812 -1.993,-5.915C-2.456,-6.018 -2.893,-6.069 -3.304,-6.069C-4.162,-6.069 -4.917,-5.919 -5.568,-5.619C-6.219,-5.319 -6.725,-4.903 -7.085,-4.372C-7.445,-3.84 -7.625,-3.24 -7.625,-2.572C-7.625,-2.006 -7.505,-1.517 -7.265,-1.106C-7.025,-0.694 -6.699,-0.338 -6.288,-0.039C-5.876,0.262 -5.401,0.51 -4.861,0.707C-4.32,0.904 -3.751,1.08 -3.151,1.234C-2.584,1.372 -2.045,1.543 -1.53,1.749C-1.016,1.954 -0.596,2.233 -0.27,2.584C0.055,2.936 0.218,3.403 0.218,3.986C0.218,4.535 0.051,4.998 -0.283,5.375C-0.617,5.752 -1.046,6.035 -1.569,6.223C-2.092,6.412 -2.636,6.506 -3.202,6.506C-4.145,6.506 -4.963,6.309 -5.658,5.915C-6.352,5.52 -6.922,5.006 -7.368,4.372C-7.471,4.252 -7.595,4.188 -7.741,4.179C-7.886,4.17 -8.002,4.209 -8.088,4.295C-8.208,4.381 -8.272,4.488 -8.281,4.616C-8.29,4.745 -8.234,4.912 -8.114,5.118C-7.445,5.941 -6.699,6.532 -5.876,6.892C-5.053,7.252 -4.197,7.432 -3.304,7.432C-2.43,7.432 -1.655,7.291 -0.978,7.008C-0.301,6.725 0.231,6.322 0.617,5.799C1.003,5.276 1.196,4.655 1.196,3.935C1.196,3.317 1.088,2.803 0.875,2.392C0.66,1.98 0.368,1.637 0,1.363" style="fill:rgb(128,127,131);fill-rule:nonzero;"/>
            </g>
        </g>
        <g transform="matrix(1.33333,0,0,1.33333,0,0)">
            <g transform="matrix(1,0,0,1,229.079,3304.14)">
                <path d="M0,-5.067C0.3,-5.787 0.69,-6.383 1.17,-6.854C1.65,-7.325 2.173,-7.677 2.739,-7.909C3.304,-8.14 3.845,-8.256 4.359,-8.256C5.096,-8.256 5.808,-8.097 6.494,-7.78C7.179,-7.463 7.767,-6.996 8.255,-6.379C8.744,-5.761 9.031,-4.998 9.117,-4.09L9.117,-3.858L-0.343,-3.858C-0.267,-4.293 -0.155,-4.696 0,-5.067M9.657,-2.881C9.794,-2.881 9.914,-2.937 10.017,-3.048C10.12,-3.16 10.171,-3.284 10.171,-3.421C10.136,-4.433 9.953,-5.302 9.618,-6.031C9.284,-6.76 8.847,-7.369 8.306,-7.857C7.767,-8.346 7.153,-8.706 6.468,-8.937C5.782,-9.169 5.079,-9.284 4.359,-9.284C3.364,-9.284 2.426,-9.015 1.543,-8.474C0.66,-7.934 -0.06,-7.159 -0.617,-6.147C-1.174,-5.135 -1.453,-3.91 -1.453,-2.47C-1.453,-1.115 -1.17,0.063 -0.604,1.066C-0.038,2.069 0.737,2.845 1.723,3.394C2.709,3.943 3.845,4.217 5.13,4.217C6.142,4.217 7.063,3.96 7.895,3.445C8.726,2.931 9.408,2.331 9.939,1.645C10.008,1.56 10.043,1.457 10.043,1.336C10.043,1.217 9.999,1.109 9.914,1.015C9.828,0.921 9.725,0.873 9.605,0.873C9.451,0.873 9.305,0.951 9.168,1.105C8.911,1.482 8.577,1.834 8.165,2.159C7.754,2.485 7.291,2.747 6.776,2.944C6.262,3.141 5.713,3.239 5.13,3.239C3.913,3.239 2.889,2.974 2.057,2.442C1.226,1.911 0.6,1.208 0.18,0.334C-0.24,-0.541 -0.45,-1.501 -0.45,-2.547C-0.45,-2.662 -0.441,-2.769 -0.436,-2.881L9.657,-2.881Z" style="fill:rgb(128,127,131);fill-rule:nonzero;"/>
            </g>
        </g>
    </g>
</svg>
