<?xml version="1.0" encoding="UTF-8" standalone="no"?>
<!DOCTYPE svg PUBLIC "-//W3C//DTD SVG 1.1//EN" "http://www.w3.org/Graphics/SVG/1.1/DTD/svg11.dtd">
<svg width="100%" height="100%" viewBox="0 0 286 359" version="1.1" xmlns="http://www.w3.org/2000/svg" xmlns:xlink="http://www.w3.org/1999/xlink" xml:space="preserve" xmlns:serif="http://www.serif.com/" style="fill-rule:evenodd;clip-rule:evenodd;stroke-linejoin:round;stroke-miterlimit:2;">
    <g transform="matrix(1,0,0,1,-139.7,-102.94)">
        <path d="M389.53,315.47C386.51,314.06 383.39,313.36 380.17,313.36C375.5,313.36 371.17,314.97 367.18,318.19C363.19,321.41 360.64,326.04 359.51,332.08L400.7,332.08L400.7,331.11C400.3,327.49 399.09,324.33 397.08,321.63C395.07,318.93 392.55,316.88 389.53,315.47Z" style="fill:white;fill-rule:nonzero;"/>
        <path d="M208.21,296.87C203.9,293.69 198.49,292.1 191.96,292.1L166.35,292.1L166.35,362.41L191.96,362.41C201.62,362.41 208.83,359.17 213.58,352.69C218.33,346.21 220.71,337.73 220.71,327.26C220.71,320.74 219.7,314.84 217.69,309.56C215.68,304.29 212.51,300.06 208.21,296.88L208.21,296.87Z" style="fill:white;fill-rule:nonzero;"/>
        <path d="M423.78,102.94L143.15,102.94C142.37,102.94 141.73,103.57 141.73,104.36L141.73,384.99C141.73,385.77 142.36,386.41 143.15,386.41L423.78,386.41C424.56,386.41 425.2,385.78 425.2,384.99L425.2,104.36C425.2,103.58 424.57,102.94 423.78,102.94ZM158.74,122.78C158.74,121.21 160.01,119.95 161.57,119.95L405.35,119.95C406.92,119.95 408.18,121.22 408.18,122.78L408.18,266.53C408.18,267.31 407.55,267.95 406.76,267.95L402,267.95C401.22,267.95 400.58,267.32 400.58,266.53L400.58,127.54L166.32,127.54L166.32,266.53C166.32,267.31 165.69,267.95 164.9,267.95L160.14,267.95C159.36,267.95 158.72,267.32 158.72,266.53L158.72,122.78L158.74,122.78ZM224.52,348.75C221.9,355.11 217.96,360.17 212.68,363.91C207.4,367.66 200.9,369.53 193.17,369.53L162.37,369.53C161.32,369.53 160.46,369.19 159.77,368.5C159.09,367.82 158.74,366.95 158.74,365.9L158.74,288.59C158.74,287.54 159.08,286.68 159.77,285.99C160.45,285.31 161.32,284.96 162.37,284.96L193.17,284.96C200.9,284.96 207.4,286.87 212.68,290.7C217.95,294.53 221.9,299.64 224.52,306.04C227.14,312.44 228.45,319.51 228.45,327.24C228.45,334.97 227.14,342.38 224.52,348.74L224.52,348.75ZM287.39,345.85C287.39,353.74 285.17,359.8 280.75,364.03C276.32,368.26 270.2,370.37 262.39,370.37C254.58,370.37 248.6,368.26 244.21,364.03C239.82,359.8 237.63,353.74 237.63,345.85L237.63,311.78C237.63,310.73 237.97,309.87 238.66,309.18C239.34,308.5 240.21,308.15 241.26,308.15C242.31,308.15 243.17,308.49 243.86,309.18C244.54,309.87 244.89,310.73 244.89,311.78L244.89,345.85C244.89,351.65 246.42,356.06 249.48,359.08C252.54,362.1 256.85,363.61 262.41,363.61C267.97,363.61 272.41,362.1 275.52,359.08C278.62,356.06 280.17,351.65 280.17,345.85L280.17,311.78C280.17,310.73 280.51,309.87 281.2,309.18C281.88,308.5 282.75,308.15 283.8,308.15C284.85,308.15 285.71,308.49 286.4,309.18C287.08,309.87 287.43,310.73 287.43,311.78L287.43,345.85L287.39,345.85ZM348.94,368.5C348.09,369.18 347.31,369.53 346.58,369.53C345.53,369.53 344.65,369.09 343.92,368.2L317.22,339.93L308.16,347.66L308.16,365.9C308.16,366.95 307.82,367.81 307.13,368.5C306.44,369.18 305.58,369.53 304.53,369.53C303.48,369.53 302.62,369.19 301.93,368.5C301.24,367.82 300.9,366.95 300.9,365.9L300.9,283.76C300.9,282.71 301.24,281.85 301.93,281.16C302.61,280.48 303.48,280.13 304.53,280.13C305.58,280.13 306.44,280.47 307.13,281.16C307.81,281.85 308.16,282.71 308.16,283.76L308.16,338.84L343.07,308.76C343.8,307.96 344.64,307.55 345.61,307.55C346.5,307.55 347.3,307.93 348.03,308.7C348.75,309.47 349.12,310.29 349.12,311.18C349.12,312.15 348.68,313.07 347.79,313.96L322.91,335.1L349.12,363.13C349.85,363.94 350.21,364.86 350.21,365.91C350.21,366.96 349.79,367.82 348.94,368.51L348.94,368.5ZM407.1,337.57C406.38,338.26 405.53,338.6 404.56,338.6L358.9,338.6C358.9,343.43 359.89,347.76 361.86,351.59C363.83,355.42 366.65,358.44 370.32,360.65C373.98,362.87 378.31,363.97 383.31,363.97C387.18,363.97 390.64,363.17 393.7,361.55C396.76,359.94 399.22,357.89 401.07,355.39C401.96,354.67 402.8,354.3 403.61,354.3C404.42,354.3 405.14,354.62 405.78,355.27C406.42,355.92 406.75,356.64 406.75,357.44C406.75,358.33 406.35,359.17 405.54,359.98C402.96,363.12 399.72,365.7 395.82,367.71C391.91,369.72 387.79,370.73 383.44,370.73C377.24,370.73 371.76,369.4 367.01,366.74C362.26,364.08 358.55,360.36 355.9,355.57C353.24,350.78 351.91,345.24 351.91,338.96C351.91,332.36 353.22,326.58 355.84,321.63C358.46,316.68 361.94,312.89 366.29,310.27C370.64,307.65 375.27,306.34 380.18,306.34C385.09,306.34 389.54,307.47 393.77,309.72C398,311.98 401.44,315.28 404.1,319.63C406.76,323.98 408.13,329.13 408.21,335.09C408.21,336.06 407.85,336.88 407.12,337.57L407.1,337.57Z" style="fill:white;fill-rule:nonzero;"/>
        <path d="M173.12,410.95C172.85,410.66 172.5,410.51 172.06,410.51C171.62,410.51 171.27,410.66 171,410.95C170.73,411.24 170.6,411.58 170.6,411.97L170.6,418.42C169.82,416.6 168.74,415.01 167.36,413.65C165.98,412.29 164.36,411.23 162.51,410.48C160.66,409.73 158.7,409.35 156.61,409.35C153.4,409.35 150.52,410.16 147.97,411.79C145.42,413.42 143.4,415.65 141.92,418.5C140.44,421.35 139.7,424.61 139.7,428.3C139.7,431.99 140.43,435.23 141.89,438.14C143.35,441.06 145.35,443.36 147.9,445.07C150.45,446.77 153.36,447.62 156.61,447.62C158.75,447.62 160.74,447.22 162.59,446.42C164.44,445.62 166.04,444.56 167.4,443.25C168.76,441.94 169.83,440.48 170.61,438.88L170.61,445.44C170.61,445.83 170.74,446.17 171.01,446.46C171.28,446.75 171.63,446.9 172.07,446.9C172.46,446.9 172.8,446.75 173.09,446.46C173.38,446.17 173.53,445.83 173.53,445.44L173.53,411.98C173.53,411.59 173.4,411.25 173.13,410.96L173.12,410.95ZM169.07,436.79C167.86,439.29 166.18,441.26 164.04,442.69C161.9,444.12 159.47,444.84 156.75,444.84C154.03,444.84 151.6,444.12 149.46,442.69C147.32,441.26 145.64,439.29 144.43,436.79C143.22,434.29 142.61,431.46 142.61,428.3C142.61,425.14 143.23,422.35 144.47,419.92C145.71,417.49 147.4,415.58 149.54,414.2C151.68,412.81 154.08,412.12 156.76,412.12C159.44,412.12 161.91,412.84 164.05,414.27C166.19,415.7 167.86,417.65 169.08,420.1C170.29,422.55 170.9,425.29 170.9,428.3C170.9,431.31 170.29,434.29 169.08,436.79L169.07,436.79Z" style="fill:white;fill-rule:nonzero;"/>
        <path d="M198.23,409.35C200.42,409.35 202.47,409.59 204.39,410.08C206.31,410.57 207.86,411.21 209.06,412.01C210.25,412.81 210.85,413.65 210.85,414.53C210.85,414.87 210.72,415.2 210.45,415.51C210.18,415.83 209.85,415.98 209.47,415.98C208.93,415.98 208.51,415.83 208.19,415.54C207.87,415.25 207.55,414.9 207.21,414.48C206.87,414.07 206.33,413.69 205.61,413.35C204.93,413.01 203.97,412.72 202.73,412.47C201.49,412.23 199.97,412.11 198.17,412.11C195.35,412.11 192.78,412.84 190.44,414.3C188.11,415.76 186.25,417.71 184.86,420.17C183.48,422.62 182.78,425.38 182.78,428.44C182.78,431.5 183.42,434.34 184.71,436.82C186,439.3 187.79,441.26 190.1,442.69C192.41,444.12 195.09,444.84 198.15,444.84C200.34,444.84 202,444.63 203.14,444.22C204.28,443.81 205.27,443.36 206.09,442.87C207.11,442.29 207.81,441.73 208.2,441.19C208.59,440.66 209.05,440.39 209.59,440.39C209.98,440.39 210.28,440.51 210.5,440.75C210.72,440.99 210.83,441.31 210.83,441.7C210.83,442.28 210.29,443.05 209.23,444C208.16,444.95 206.67,445.79 204.75,446.52C202.83,447.25 200.56,447.61 197.93,447.61C194.38,447.61 191.25,446.77 188.53,445.09C185.81,443.41 183.68,441.13 182.15,438.24C180.62,435.35 179.85,432.08 179.85,428.44C179.85,425.04 180.61,421.89 182.15,419C183.68,416.11 185.82,413.78 188.57,412C191.32,410.23 194.53,409.34 198.23,409.34L198.23,409.35Z" style="fill:white;fill-rule:nonzero;"/>
        <path d="M247.47,410.95C247.2,410.66 246.85,410.51 246.41,410.51C245.97,410.51 245.62,410.66 245.35,410.95C245.08,411.24 244.95,411.58 244.95,411.97L244.95,418.42C244.17,416.6 243.09,415.01 241.71,413.65C240.33,412.29 238.71,411.23 236.86,410.48C235.01,409.73 233.04,409.35 230.96,409.35C227.75,409.35 224.87,410.16 222.32,411.79C219.77,413.42 217.75,415.65 216.27,418.5C214.79,421.35 214.05,424.61 214.05,428.3C214.05,431.99 214.78,435.23 216.24,438.14C217.7,441.06 219.7,443.36 222.25,445.07C224.8,446.77 227.71,447.62 230.96,447.62C233.1,447.62 235.09,447.22 236.94,446.42C238.79,445.62 240.39,444.56 241.75,443.25C243.11,441.94 244.18,440.48 244.96,438.88L244.96,445.44C244.96,445.83 245.09,446.17 245.36,446.46C245.63,446.75 245.98,446.9 246.42,446.9C246.81,446.9 247.15,446.75 247.44,446.46C247.73,446.17 247.88,445.83 247.88,445.44L247.88,411.98C247.88,411.59 247.75,411.25 247.48,410.96L247.47,410.95ZM243.43,436.79C242.22,439.29 240.54,441.26 238.4,442.69C236.26,444.12 233.83,444.84 231.11,444.84C228.39,444.84 225.96,444.12 223.82,442.69C221.68,441.26 220,439.29 218.79,436.79C217.57,434.29 216.97,431.46 216.97,428.3C216.97,425.14 217.59,422.35 218.83,419.92C220.07,417.49 221.76,415.58 223.9,414.2C226.04,412.81 228.44,412.12 231.12,412.12C233.8,412.12 236.27,412.84 238.41,414.27C240.55,415.7 242.22,417.65 243.44,420.1C244.65,422.55 245.26,425.29 245.26,428.3C245.26,431.31 244.65,434.29 243.44,436.79L243.43,436.79Z" style="fill:white;fill-rule:nonzero;"/>
        <path d="M287.64,393.38C287.37,393.09 287.02,392.94 286.58,392.94C286.14,392.94 285.79,393.09 285.52,393.38C285.25,393.67 285.12,394.01 285.12,394.4L285.12,418.61C285.09,418.55 285.07,418.48 285.05,418.42C284.22,416.6 283.11,415.01 281.7,413.65C280.29,412.29 278.67,411.23 276.85,410.48C275.03,409.73 273.12,409.35 271.13,409.35C267.92,409.35 265.04,410.18 262.49,411.83C259.94,413.48 257.92,415.75 256.44,418.65C254.96,421.54 254.22,424.81 254.22,428.45C254.22,432.09 254.96,435.36 256.44,438.25C257.92,441.14 259.94,443.43 262.49,445.1C265.04,446.78 267.92,447.62 271.13,447.62C273.27,447.62 275.26,447.21 277.11,446.38C278.96,445.55 280.57,444.45 281.96,443.06C283.32,441.69 284.38,440.19 285.13,438.54L285.13,445.43C285.13,445.82 285.26,446.16 285.53,446.45C285.8,446.74 286.15,446.89 286.59,446.89C286.98,446.89 287.32,446.74 287.61,446.45C287.9,446.16 288.05,445.82 288.05,445.43L288.05,394.4C288.05,394.01 287.92,393.67 287.65,393.38L287.64,393.38ZM278.6,442.73C276.49,444.14 274.04,444.84 271.27,444.84C268.5,444.84 266.19,444.12 264.05,442.69C261.91,441.26 260.22,439.3 258.98,436.82C257.74,434.34 257.12,431.55 257.12,428.44C257.12,425.33 257.74,422.47 258.98,420.02C260.22,417.57 261.91,415.63 264.05,414.22C266.19,412.81 268.59,412.11 271.27,412.11C273.95,412.11 276.42,412.82 278.56,414.22C280.7,415.63 282.37,417.56 283.59,420.02C284.8,422.47 285.41,425.28 285.41,428.44C285.41,431.6 284.8,434.42 283.59,436.9C282.38,439.38 280.71,441.32 278.6,442.73Z" style="fill:white;fill-rule:nonzero;"/>
        <path d="M325.73,438.14C325.29,438.14 324.88,438.36 324.49,438.8C323.76,439.87 322.81,440.87 321.65,441.79C320.48,442.71 319.17,443.46 317.71,444.01C316.25,444.57 314.7,444.85 313.04,444.85C309.59,444.85 306.69,444.1 304.33,442.59C301.97,441.08 300.2,439.09 299.01,436.61C297.82,434.13 297.22,431.41 297.22,428.45C297.22,428.12 297.25,427.82 297.26,427.5L325.87,427.5C326.26,427.5 326.6,427.34 326.89,427.03C327.18,426.71 327.33,426.36 327.33,425.97C327.23,423.1 326.71,420.64 325.76,418.57C324.81,416.51 323.57,414.78 322.04,413.39C320.51,412.01 318.77,410.98 316.83,410.33C314.89,409.67 312.89,409.35 310.85,409.35C308.03,409.35 305.37,410.12 302.87,411.65C300.37,413.18 298.33,415.38 296.75,418.25C295.17,421.12 294.38,424.59 294.38,428.67C294.38,432.51 295.18,435.85 296.79,438.69C298.39,441.53 300.59,443.73 303.39,445.29C306.18,446.85 309.4,447.62 313.05,447.62C315.92,447.62 318.53,446.89 320.89,445.43C323.25,443.97 325.18,442.27 326.68,440.33C326.87,440.09 326.97,439.8 326.97,439.45C326.97,439.1 326.85,438.81 326.61,438.54C326.37,438.27 326.07,438.14 325.73,438.14ZM301.82,416.24C303.18,414.9 304.66,413.91 306.27,413.25C307.88,412.59 309.4,412.27 310.86,412.27C312.95,412.27 314.97,412.72 316.91,413.62C318.85,414.52 320.52,415.84 321.9,417.59C323.28,419.34 324.1,421.5 324.34,424.08L324.34,424.74L297.53,424.74C297.74,423.51 298.06,422.36 298.5,421.31C299.35,419.27 300.46,417.58 301.82,416.24Z" style="fill:white;fill-rule:nonzero;"/>
        <path d="M386.49,417.04C385.59,414.93 384.19,413.24 382.3,411.97C380.4,410.71 378,410.07 375.08,410.07C373.23,410.07 371.33,410.45 369.36,411.2C367.39,411.95 365.62,412.96 364.04,414.22C362.62,415.36 361.6,416.64 360.95,418.06C360.07,415.5 358.65,413.58 356.68,412.29C354.42,410.81 351.93,410.07 349.21,410.07C347.32,410.07 345.48,410.46 343.71,411.24C341.93,412.02 340.36,413.05 338.97,414.34C338.05,415.19 337.27,416.12 336.6,417.11L336.6,411.97C336.6,411.58 336.47,411.24 336.2,410.95C335.93,410.66 335.58,410.51 335.14,410.51C334.75,410.51 334.41,410.66 334.12,410.95C333.83,411.24 333.68,411.58 333.68,411.97L333.68,445.43C333.68,445.82 333.81,446.16 334.08,446.45C334.35,446.74 334.7,446.89 335.14,446.89C335.53,446.89 335.87,446.74 336.16,446.45C336.45,446.16 336.6,445.82 336.6,445.43L336.6,424.14C336.6,422.05 337.23,420.16 338.49,418.45C339.75,416.75 341.34,415.39 343.27,414.37C345.19,413.35 347.17,412.84 349.21,412.84C351.54,412.84 353.41,413.35 354.82,414.37C356.23,415.39 357.26,416.75 357.92,418.45C358.58,420.15 358.9,422.05 358.9,424.14L358.9,445.43C358.9,445.82 359.03,446.16 359.3,446.45C359.57,446.74 359.92,446.89 360.36,446.89C360.8,446.89 361.15,446.74 361.42,446.45C361.69,446.16 361.82,445.82 361.82,445.43L361.82,424.51C361.82,422.37 362.46,420.42 363.75,418.64C365.04,416.87 366.68,415.46 368.67,414.41C370.66,413.37 372.7,412.84 374.79,412.84C377.17,412.84 379.1,413.36 380.58,414.41C382.06,415.46 383.16,416.86 383.86,418.64C384.56,420.41 384.92,422.37 384.92,424.51L384.92,445.43C384.92,445.82 385.05,446.16 385.32,446.45C385.59,446.74 385.94,446.89 386.38,446.89C386.82,446.89 387.17,446.74 387.44,446.45C387.71,446.16 387.84,445.82 387.84,445.43L387.84,424.22C387.84,421.55 387.39,419.15 386.49,417.04Z" style="fill:white;fill-rule:nonzero;"/>
        <path d="M424.54,409.78C424.27,409.49 423.92,409.34 423.48,409.34C423.04,409.34 422.69,409.49 422.42,409.78C422.15,410.07 422.02,410.41 422.02,410.8L422.02,433.54C422.02,435.39 421.39,437.19 420.12,438.93C418.85,440.67 417.24,442.1 415.27,443.19C413.3,444.28 411.22,444.83 409.04,444.83C405.4,444.83 402.81,443.81 401.28,441.77C399.75,439.73 398.98,436.98 398.98,433.53L398.98,410.79C398.98,410.4 398.85,410.06 398.58,409.77C398.31,409.48 397.96,409.33 397.52,409.33C397.08,409.33 396.73,409.48 396.46,409.77C396.19,410.06 396.06,410.4 396.06,410.79L396.06,433.53C396.06,436.35 396.51,438.8 397.41,440.89C398.31,442.98 399.72,444.62 401.64,445.81C403.56,447 406.03,447.6 409.04,447.6C410.89,447.6 412.67,447.25 414.4,446.54C416.12,445.84 417.68,444.89 419.07,443.7C420.37,442.58 421.34,441.35 422.02,440L422.02,443.3C422.02,446.36 421.42,449.06 420.23,451.39C419.04,453.72 417.39,455.55 415.27,456.86C413.16,458.17 410.69,458.83 407.87,458.83C405.78,458.83 403.9,458.49 402.22,457.81C400.54,457.13 399.29,456.55 398.47,456.06C398.13,455.82 397.78,455.77 397.41,455.91C397.04,456.06 396.77,456.32 396.57,456.71C396.38,457.1 396.38,457.46 396.57,457.8C396.76,458.14 397.03,458.43 397.37,458.68C398.49,459.46 399.93,460.11 401.71,460.65C403.48,461.18 405.49,461.45 407.72,461.45C411.02,461.45 413.96,460.72 416.54,459.26C419.12,457.8 421.16,455.71 422.66,452.99C424.17,450.27 424.92,447.04 424.92,443.29L424.92,410.78C424.92,410.39 424.79,410.05 424.52,409.76L424.54,409.78Z" style="fill:white;fill-rule:nonzero;"/>
    </g>
</svg>
